<?xml version="1.0" encoding="UTF-8" standalone="no"?>
<!-- Created with Inkscape (http://www.inkscape.org/) -->

<svg
 xmlns:dc="http://purl.org/dc/elements/1.1/"
 xmlns:cc="http://creativecommons.org/ns#"
 xmlns:rdf="http://www.w3.org/1999/02/22-rdf-syntax-ns#"
 xmlns:svg="http://www.w3.org/2000/svg"
 xmlns="http://www.w3.org/2000/svg"
 xmlns:xlink="http://www.w3.org/1999/xlink"
 xmlns:sodipodi="http://sodipodi.sourceforge.net/DTD/sodipodi-0.dtd"
 xmlns:inkscape="http://www.inkscape.org/namespaces/inkscape"
 width="164.92976"
 height="164.92998"
 viewBox="0 0 43.637663 43.637722"
 version="1.1"
 id="svg15969"
 inkscape:version="0.92.2 (unknown)"
 sodipodi:docname="luna.svg">
<defs
 id="defs15963">
<linearGradient
 inkscape:collect="always"
 xlink:href="#linearGradient4451"
 id="linearGradient4384"
 x1="185.00002"
 y1="389.50504"
 x2="496.42859"
 y2="310.93365"
 gradientUnits="userSpaceOnUse" />
<linearGradient
 inkscape:collect="always"
 id="linearGradient4451">
<stop
 style="stop-color:#d400aa;stop-opacity:1"
 offset="0"
 id="stop4453" />
<stop
 style="stop-color:#29e800;stop-opacity:1"
 offset="1"
 id="stop4455" />
</linearGradient>
<radialGradient
 inkscape:collect="always"
 xlink:href="#linearGradient4388"
 id="radialGradient4394"
 cx="348.65012"
 cy="160.9894"
 fx="348.65012"
 fy="160.9894"
 r="148.42773"
 gradientTransform="matrix(-1.3257936,1.0654029,-0.6668636,-0.87367246,941.48952,-39.0986)"
 gradientUnits="userSpaceOnUse" />
<linearGradient
 inkscape:collect="always"
 id="linearGradient4388">
<stop
 style="stop-color:#6300f6;stop-opacity:1"
 offset="0"
 id="stop4390" />
<stop
 style="stop-color:#001c32;stop-opacity:1"
 offset="1"
 id="stop4392" />
</linearGradient>
</defs>
<sodipodi:namedview
 id="base"
 pagecolor="#ffffff"
 bordercolor="#666666"
 borderopacity="1.0"
 inkscape:pageopacity="0.0"
 inkscape:pageshadow="2"
 inkscape:zoom="2.8"
 inkscape:cx="116.42969"
 inkscape:cy="79.181084"
 inkscape:document-units="mm"
 inkscape:current-layer="g4162"
 showgrid="false"
 fit-margin-top="0"
 fit-margin-left="0"
 fit-margin-right="0"
 fit-margin-bottom="0"
 inkscape:pagecheckerboard="true"
 inkscape:window-width="1366"
 inkscape:window-height="716"
 inkscape:window-x="0"
 inkscape:window-y="25"
 inkscape:window-maximized="1"
 units="px" />
<metadata
 id="metadata15966">
<rdf:RDF>
<cc:Work
 rdf:about="">
<dc:format>image/svg+xml</dc:format>
<dc:type
 rdf:resource="http://purl.org/dc/dcmitype/StillImage" />
<dc:title></dc:title>
</cc:Work>
</rdf:RDF>
</metadata>
<g
 inkscape:label="Layer 1"
 inkscape:groupmode="layer"
 id="layer1"
 transform="translate(62.608172,-14.850243)">
<g
 id="g4162"
 transform="matrix(0.16002537,0,0,0.16002537,-154.35869,-65.599601)">
<g
 transform="matrix(0.91771405,0,0,0.91771405,438.31475,382.57255)"
 id="g4944">
<circle
 r="148.57143"
 cy="279.50504"
 cx="295.71429"
 id="path4136-4"
 style="opacity:1;fill:url(#linearGradient4384);fill-opacity:1;fill-rule:nonzero;stroke:none;stroke-width:4.9025507;stroke-linecap:round;stroke-linejoin:round;stroke-miterlimit:4;stroke-dasharray:none;stroke-dashoffset:0;stroke-opacity:1" />
<path
 inkscape:connector-curvature="0"
 id="path4177"
 transform="scale(0.9375)"
 d="m 315.42773,139.66211 a 158.47619,158.47619 0 0 0 -155.0957,126.12695 158.47619,162.60685 0 0 0 -0.29297,1.33789 158.47619,158.47619 0 0 0 -2.76953,24.67969 c 10.89314,0.53857 20.54653,1.14204 30.81836,0.81055 6.13983,-0.19815 12.21261,-1.66421 18.35547,-1.67383 5.08596,-0.007 10.11825,1.23152 15.20312,1.33984 6.368,0.13566 12.72523,-0.61083 19.08985,-0.86328 7.37703,-0.29258 14.75341,-0.61778 22.13476,-0.7539 6.6066,-0.12184 13.21749,-0.25742 19.82227,-0.0566 9.6504,0.29336 19.25522,1.65582 28.9082,1.83984 8.39489,0.16004 16.78702,-0.46678 25.18164,-0.64063 9.91515,-0.20533 19.84144,-0.94606 29.74805,-0.47656 7.15852,0.33925 14.21412,2.04484 21.37305,2.375 9.61874,0.44362 19.26351,-0.0587 28.88086,-0.5332 8.93637,-0.44097 17.81298,-2.33571 26.75781,-2.14844 9.17257,0.19204 23.55016,2.42886 27.33008,3.34961 0.81657,0.19892 1.80791,0.27936 2.9082,0.30859 a 158.47619,162.60685 0 0 0 -0.91406,-13.03125 158.47619,158.47619 0 0 0 -0.80078,-6.59961 158.47619,162.60685 0 0 0 -1.20899,-7.1582 158.47619,158.47619 0 0 0 -2.6582,-11.83984 158.47619,162.60685 0 0 0 -0.15039,-0.54883 158.47619,158.47619 0 0 0 -152.6211,-115.84375 z"
 style="fill:url(#radialGradient4394);fill-opacity:1;fill-rule:evenodd;stroke:none;stroke-width:1.08047855px;stroke-linecap:butt;stroke-linejoin:miter;stroke-opacity:1" />
<path
 inkscape:connector-curvature="0"
 id="path4138"
 transform="scale(0.9375)"
 d="m 322.12891,256.34766 c -0.2738,0.95028 -3.89693,75.10711 -29.60157,121.60546 -19.05792,34.47478 -49.67242,48.35948 -63.23046,53.03711 a 158.47619,158.47619 0 0 0 50.35156,21.36915 c 8.79205,-13.44606 26.35454,-42.11839 33.8125,-67.25586 10.14213,-34.18467 8.76906,-124.4143 8.68554,-128.61524 -0.002,-0.12508 -0.009,-0.17128 -0.0176,-0.14062 z"
 style="fill:#000000;fill-rule:evenodd;stroke:none;stroke-width:1.47061419px;stroke-linecap:butt;stroke-linejoin:miter;stroke-opacity:1" />
<path
 sodipodi:nodetypes="sszacccsccssssss"
 inkscape:connector-curvature="0"
 id="rect4144"
 d="m 260.71345,251.64732 c -0.24876,1.16078 -3.6561,2.60244 -3.214,5.71401 2.5527,17.96605 -3.03789,32.0467 -2.13814,47.61631 0.89975,15.56961 1.71023,27.89996 1.78271,41.86862 0.0961,18.51492 -1.78687,55.51674 -1.78687,55.51674 l 2.49972,-2.07589 6.07114,-93.9576 c 0,0 7.50113,14.86572 9.64399,21.19226 2.14286,6.32653 -5.71513,67.84542 -5.71513,67.84542 l 4.28544,-30.46485 c 0,0 9.64314,-40.72613 6.07171,-45.64676 -2.31253,-3.18615 -6.99951,-14.22711 -9.5475,-15.56211 -1.67226,-0.87617 -2.01921,-48.475 3.47579,-48.475 1.18714,0 -2.80208,-2.87512 -3.9283,-2.49972 -4.11928,1.3731 -0.24427,-16.93847 -4.28599,-17.5 -5.06488,-0.70368 -3.21457,16.42857 -3.21457,16.42857 z"
 style="opacity:1;fill:#000000;fill-opacity:1;fill-rule:nonzero;stroke:none;stroke-width:4.9025507;stroke-linecap:round;stroke-linejoin:round;stroke-miterlimit:4;stroke-dasharray:none;stroke-dashoffset:0;stroke-opacity:1" />
<path
 sodipodi:nodetypes="sssas"
 inkscape:connector-curvature="0"
 id="path4146"
 d="m 271.9949,238.16315 c -1.99761,7.52443 -2.32969,10.54782 -7.14285,10 -6.34778,-0.72249 -8.57144,-8.46409 -8.57144,-17.14286 0,-8.67876 7.5472,-8.91749 11.83648,-7.20413 4.60048,1.83768 6.10474,5.9588 3.87781,14.34699 z"
 style="opacity:1;fill:#000000;fill-opacity:1;fill-rule:nonzero;stroke:none;stroke-width:4.9025507;stroke-linecap:round;stroke-linejoin:round;stroke-miterlimit:4;stroke-dasharray:none;stroke-dashoffset:0;stroke-opacity:1" />
<path
 sodipodi:nodetypes="sssscascass"
 inkscape:connector-curvature="0"
 id="path4152"
 d="m 269.99999,253.07649 c 7.7805,5.02482 9.71179,6.78195 16.78571,22.14285 5.40105,11.72826 -5.52877,21.13007 -13.09173,21.09682 0,0 13.53867,-7.17716 10.17332,-16.07143 -5.71943,-15.11588 -14.45899,-20.5664 -14.58157,-20.38253 0,0 -8.88478,-0.98772 -12.85715,-2.85713 -8.59705,-4.04581 -16.76204,-5.49043 -22.5,-17.50001 -4.52681,-9.47464 10.71429,-19.64285 10.71429,-19.64285 0,0 -9.32695,12.30878 -7.14286,18.57142 2.54813,7.30651 14.28571,8.92857 20,11.78571 5.71429,2.85715 8.90954,0.53836 12.49999,2.85715 z"
 style="fill:#000000;fill-rule:evenodd;stroke:none;stroke-width:1px;stroke-linecap:butt;stroke-linejoin:miter;stroke-opacity:1" />
<path
 inkscape:transform-center-y="-102.41184"
 inkscape:transform-center-x="47.98638"
 sodipodi:nodetypes="csaccsscc"
 inkscape:connector-curvature="0"
 id="path4154"
 d="m 224.02256,183.88808 c 0,0 106.98973,212.46982 111.15271,212.59842 3.6041,0.11135 6.63529,0.62555 9.25371,2.44896 5.23519,3.64567 11.00976,15.65464 11.00976,15.65464 l -26.50428,1.37405 c 0,0 -3.53435,1.07398 -3.27968,-8.20824 0.26013,-9.48132 6.80674,-6.49188 4.77025,-10.43108 -2.1004,-4.06283 -109.6997,-211.10119 -109.6997,-211.10119 z"
 style="fill:#000000;fill-rule:evenodd;stroke:none;stroke-width:1px;stroke-linecap:butt;stroke-linejoin:miter;stroke-opacity:1" />
<path
 inkscape:connector-curvature="0"
 id="path4214"
 d="m 164.73291,288.3622 h 28.39132"
 style="fill:none;fill-rule:evenodd;stroke:#000000;stroke-width:1.75;stroke-linecap:round;stroke-linejoin:miter;stroke-miterlimit:4;stroke-dasharray:none;stroke-opacity:1" />
<path
 style="fill:none;fill-rule:evenodd;stroke:#000000;stroke-width:1.75;stroke-linecap:round;stroke-linejoin:miter;stroke-miterlimit:4;stroke-dasharray:none;stroke-opacity:1"
 d="m 205.25057,288.3622 h 51.64172"
 id="path4216"
 inkscape:connector-curvature="0" />
<path
 inkscape:connector-curvature="0"
 id="path4218"
 d="m 308.82199,288.3622 h 51.64172"
 style="fill:none;fill-rule:evenodd;stroke:#000000;stroke-width:1.75;stroke-linecap:round;stroke-linejoin:miter;stroke-miterlimit:4;stroke-dasharray:none;stroke-opacity:1" />
<path
 style="fill:none;fill-rule:evenodd;stroke:#000000;stroke-width:1.75;stroke-linecap:round;stroke-linejoin:miter;stroke-miterlimit:4;stroke-dasharray:none;stroke-opacity:1"
 d="m 372.73913,288.3622 h 15.23602"
 id="path4220-1"
 inkscape:connector-curvature="0" />
<path
 inkscape:connector-curvature="0"
 id="path4222-9"
 d="m 275.65948,288.3622 h 10.1096"
 style="fill:none;fill-rule:evenodd;stroke:#000000;stroke-width:1.75;stroke-linecap:round;stroke-linejoin:miter;stroke-miterlimit:4;stroke-dasharray:none;stroke-opacity:1" />
<path
 style="fill:none;fill-rule:evenodd;stroke:#000000;stroke-width:1.75;stroke-linecap:round;stroke-linejoin:miter;stroke-miterlimit:4;stroke-dasharray:none;stroke-opacity:1"
 d="m 351.02963,301.21934 h 42.22645"
 id="path4224-0"
 inkscape:connector-curvature="0" />
<path
 inkscape:connector-curvature="0"
 id="path4228-9"
 d="m 322.56809,301.21934 h 15.5781"
 style="fill:none;fill-rule:evenodd;stroke:#000000;stroke-width:1.75;stroke-linecap:round;stroke-linejoin:miter;stroke-miterlimit:4;stroke-dasharray:none;stroke-opacity:1" />
<path
 style="fill:none;fill-rule:evenodd;stroke:#000000;stroke-width:1.75;stroke-linecap:round;stroke-linejoin:miter;stroke-miterlimit:4;stroke-dasharray:none;stroke-opacity:1"
 d="m 258.28238,301.21934 h 15.5781"
 id="path4230-8"
 inkscape:connector-curvature="0" />
<path
 inkscape:connector-curvature="0"
 id="path4232"
 d="m 228.99667,301.21934 h 15.5781"
 style="fill:none;fill-rule:evenodd;stroke:#000000;stroke-width:1.75;stroke-linecap:round;stroke-linejoin:miter;stroke-miterlimit:4;stroke-dasharray:none;stroke-opacity:1" />
<path
 style="fill:none;fill-rule:evenodd;stroke:#000000;stroke-width:1.75;stroke-linecap:round;stroke-linejoin:miter;stroke-miterlimit:4;stroke-dasharray:none;stroke-opacity:1"
 d="m 217.62603,302.29077 h 4.03367"
 id="path4234"
 inkscape:connector-curvature="0" />
<path
 inkscape:connector-curvature="0"
 id="path4236"
 d="m 202.37784,302.29077 h 8.81577"
 style="fill:none;fill-rule:evenodd;stroke:#000000;stroke-width:1.75;stroke-linecap:round;stroke-linejoin:miter;stroke-miterlimit:4;stroke-dasharray:none;stroke-opacity:1" />
<path
 style="fill:none;fill-rule:evenodd;stroke:#000000;stroke-width:1.75;stroke-linecap:round;stroke-linejoin:miter;stroke-miterlimit:4;stroke-dasharray:none;stroke-opacity:1"
 d="M 182.18326,317.29077 H 220.6739"
 id="path4242"
 inkscape:connector-curvature="0" />
<path
 inkscape:connector-curvature="0"
 id="path4244"
 d="m 331.87965,317.29077 h 27.66928"
 style="fill:none;fill-rule:evenodd;stroke:#000000;stroke-width:1.75;stroke-linecap:round;stroke-linejoin:miter;stroke-miterlimit:4;stroke-dasharray:none;stroke-opacity:1" />
<path
 style="fill:none;fill-rule:evenodd;stroke:#000000;stroke-width:1.75;stroke-linecap:round;stroke-linejoin:miter;stroke-miterlimit:4;stroke-dasharray:none;stroke-opacity:1"
 d="m 370.14748,316.75506 h 16.8479"
 id="path4246"
 inkscape:connector-curvature="0" />
<path
 inkscape:connector-curvature="0"
 id="path4248"
 d="M 399.38267,317.29077 H 438.4745"
 style="fill:none;fill-rule:evenodd;stroke:#000000;stroke-width:1.75;stroke-linecap:round;stroke-linejoin:miter;stroke-miterlimit:4;stroke-dasharray:none;stroke-opacity:1" />
<path
 style="fill:none;fill-rule:evenodd;stroke:#000000;stroke-width:1.75;stroke-linecap:round;stroke-linejoin:miter;stroke-miterlimit:4;stroke-dasharray:none;stroke-opacity:1"
 d="m 346.57606,333.8622 h 16.8479"
 id="path4250"
 inkscape:connector-curvature="0" />
<path
 inkscape:connector-curvature="0"
 id="path4252"
 d="m 380.14749,333.8622 h 16.8479"
 style="fill:none;fill-rule:evenodd;stroke:#000000;stroke-width:1.75;stroke-linecap:round;stroke-linejoin:miter;stroke-miterlimit:4;stroke-dasharray:none;stroke-opacity:1" />
<path
 inkscape:connector-curvature="0"
 id="path4256"
 d="m 297.89755,333.8622 h 38.49064"
 style="fill:none;fill-rule:evenodd;stroke:#000000;stroke-width:1.75;stroke-linecap:round;stroke-linejoin:miter;stroke-miterlimit:4;stroke-dasharray:none;stroke-opacity:1" />
<path
 style="fill:none;fill-rule:evenodd;stroke:#000000;stroke-width:1.75;stroke-linecap:round;stroke-linejoin:miter;stroke-miterlimit:4;stroke-dasharray:none;stroke-opacity:1"
 d="m 213.82685,333.8622 h 53.7749"
 id="path4258"
 inkscape:connector-curvature="0" />
<path
 inkscape:connector-curvature="0"
 id="path4260"
 d="m 159.26926,333.8622 h 31.4615"
 style="fill:none;fill-rule:evenodd;stroke:#000000;stroke-width:1.75;stroke-linecap:round;stroke-linejoin:miter;stroke-miterlimit:4;stroke-dasharray:none;stroke-opacity:1" />
<path
 style="fill:none;fill-rule:evenodd;stroke:#000000;stroke-width:1.75;stroke-linecap:round;stroke-linejoin:miter;stroke-miterlimit:4;stroke-dasharray:none;stroke-opacity:1"
 d="m 167.29035,351.57649 h 16.8479"
 id="path4262"
 inkscape:connector-curvature="0" />
<path
 inkscape:connector-curvature="0"
 id="path4266"
 d="m 191.67914,279.07649 h 51.64172"
 style="fill:none;fill-rule:evenodd;stroke:#000000;stroke-width:1.75;stroke-linecap:round;stroke-linejoin:miter;stroke-miterlimit:4;stroke-dasharray:none;stroke-opacity:1" />
<path
 style="fill:none;fill-rule:evenodd;stroke:#000000;stroke-width:1.75;stroke-linecap:round;stroke-linejoin:miter;stroke-miterlimit:4;stroke-dasharray:none;stroke-opacity:1"
 d="m 332.39342,279.07649 h 51.64172"
 id="path4268-8"
 inkscape:connector-curvature="0" />
<path
 inkscape:connector-curvature="0"
 id="path4270-5"
 d="m 402.73913,279.07649 h 15.23602"
 style="fill:none;fill-rule:evenodd;stroke:#000000;stroke-width:1.75;stroke-linecap:round;stroke-linejoin:miter;stroke-miterlimit:4;stroke-dasharray:none;stroke-opacity:1" />
<path
 style="fill:none;fill-rule:evenodd;stroke:#000000;stroke-width:1.75;stroke-linecap:round;stroke-linejoin:miter;stroke-miterlimit:4;stroke-dasharray:none;stroke-opacity:1"
 d="m 300.392,279.07649 h 22.07314"
 id="path4272-8"
 inkscape:connector-curvature="0" />
<path
 inkscape:connector-curvature="0"
 id="path4274-4"
 d="m 190.82609,351.57649 h 24.06214"
 style="fill:none;fill-rule:evenodd;stroke:#000000;stroke-width:1.75;stroke-linecap:round;stroke-linejoin:miter;stroke-miterlimit:4;stroke-dasharray:none;stroke-opacity:1" />
<path
 style="fill:none;fill-rule:evenodd;stroke:#000000;stroke-width:1.75;stroke-linecap:round;stroke-linejoin:miter;stroke-miterlimit:4;stroke-dasharray:none;stroke-opacity:1"
 d="m 228.99123,353.57649 h 22.01756"
 id="path4276-3"
 inkscape:connector-curvature="0" />
<path
 inkscape:connector-curvature="0"
 id="path4278-7"
 d="m 304.03507,351.57649 h 20.5013"
 style="fill:none;fill-rule:evenodd;stroke:#000000;stroke-width:1.75;stroke-linecap:round;stroke-linejoin:miter;stroke-miterlimit:4;stroke-dasharray:none;stroke-opacity:1" />
<path
 style="fill:none;fill-rule:evenodd;stroke:#000000;stroke-width:1.75;stroke-linecap:round;stroke-linejoin:miter;stroke-miterlimit:4;stroke-dasharray:none;stroke-opacity:1"
 d="m 341.63562,350.86221 h 28.87164"
 id="path4280"
 inkscape:connector-curvature="0" />
<path
 style="fill:none;fill-rule:evenodd;stroke:#000000;stroke-width:1.75;stroke-linecap:round;stroke-linejoin:miter;stroke-miterlimit:4;stroke-dasharray:none;stroke-opacity:1"
 d="m 298.04032,373.43363 h 9.63366"
 id="path4284"
 inkscape:connector-curvature="0" />
<path
 inkscape:connector-curvature="0"
 id="path4286"
 d="m 283.71892,389.14792 h 16.8479"
 style="fill:none;fill-rule:evenodd;stroke:#000000;stroke-width:1.75;stroke-linecap:round;stroke-linejoin:miter;stroke-miterlimit:4;stroke-dasharray:none;stroke-opacity:1" />
<path
 style="fill:none;fill-rule:evenodd;stroke:#000000;stroke-width:1.75;stroke-linecap:round;stroke-linejoin:miter;stroke-miterlimit:4;stroke-dasharray:none;stroke-opacity:1"
 d="m 274.14339,402.97189 h 9.62114"
 id="path4288"
 inkscape:connector-curvature="0" />
<path
 inkscape:connector-curvature="0"
 id="path4290"
 d="m 268.00463,418.43364 h 16.8479"
 style="fill:none;fill-rule:evenodd;stroke:#000000;stroke-width:1.75;stroke-linecap:round;stroke-linejoin:miter;stroke-miterlimit:4;stroke-dasharray:none;stroke-opacity:1" />
<path
 style="fill:none;fill-rule:evenodd;stroke:#000000;stroke-width:1.75;stroke-linecap:round;stroke-linejoin:miter;stroke-miterlimit:4;stroke-dasharray:none;stroke-opacity:1"
 d="m 267.23214,409.86221 h 16.8479"
 id="path4292"
 inkscape:connector-curvature="0" />
<path
 inkscape:connector-curvature="0"
 id="path4294"
 d="m 276.57605,395.5765 h 16.8479"
 style="fill:none;fill-rule:evenodd;stroke:#000000;stroke-width:1.75;stroke-linecap:round;stroke-linejoin:miter;stroke-miterlimit:4;stroke-dasharray:none;stroke-opacity:1" />
<path
 style="fill:none;fill-rule:evenodd;stroke:#000000;stroke-width:1.75;stroke-linecap:round;stroke-linejoin:miter;stroke-miterlimit:4;stroke-dasharray:none;stroke-opacity:1"
 d="m 300.86176,395.5765 h 16.8479"
 id="path4296"
 inkscape:connector-curvature="0" />
<path
 inkscape:connector-curvature="0"
 id="path4298"
 d="m 286.57606,380.57649 h 16.8479"
 style="fill:none;fill-rule:evenodd;stroke:#000000;stroke-width:1.75;stroke-linecap:round;stroke-linejoin:miter;stroke-miterlimit:4;stroke-dasharray:none;stroke-opacity:1" />
<path
 inkscape:connector-curvature="0"
 id="path4300"
 d="m 383.71892,351.57649 h 16.8479"
 style="fill:none;fill-rule:evenodd;stroke:#000000;stroke-width:1.75;stroke-linecap:round;stroke-linejoin:miter;stroke-miterlimit:4;stroke-dasharray:none;stroke-opacity:1" />
<path
 inkscape:connector-curvature="0"
 id="path4302"
 d="m 343.00462,395.5765 h 16.8479"
 style="fill:none;fill-rule:evenodd;stroke:#000000;stroke-width:1.75;stroke-linecap:round;stroke-linejoin:miter;stroke-miterlimit:4;stroke-dasharray:none;stroke-opacity:1" />
<path
 inkscape:connector-curvature="0"
 id="path4306"
 d="M 182.48369,374.14856 H 215.4126 Z"
 style="fill:none;fill-rule:evenodd;stroke:#000000;stroke-width:1.73031878;stroke-linecap:round;stroke-linejoin:miter;stroke-miterlimit:4;stroke-dasharray:none;stroke-opacity:1" />
<path
 style="fill:none;fill-rule:evenodd;stroke:#000000;stroke-width:1.75;stroke-linecap:round;stroke-linejoin:miter;stroke-miterlimit:4;stroke-dasharray:none;stroke-opacity:1"
 d="m 223.99123,374.14792 h 22.01756"
 id="path4308"
 inkscape:connector-curvature="0" />
<path
 inkscape:connector-curvature="0"
 id="path4312"
 d="m 302.44135,409.86221 h 16.8479"
 style="fill:none;fill-rule:evenodd;stroke:#000000;stroke-width:1.75;stroke-linecap:round;stroke-linejoin:miter;stroke-miterlimit:4;stroke-dasharray:none;stroke-opacity:1" />
<path
 inkscape:connector-curvature="0"
 id="path4314"
 d="m 384.7825,374.14792 h 4.72074"
 style="fill:none;fill-rule:evenodd;stroke:#000000;stroke-width:1.75;stroke-linecap:round;stroke-linejoin:miter;stroke-miterlimit:4;stroke-dasharray:none;stroke-opacity:1" />
<path
 inkscape:connector-curvature="0"
 id="path4316"
 d="m 235.86177,317.29077 h 16.8479"
 style="fill:none;fill-rule:evenodd;stroke:#000000;stroke-width:1.75;stroke-linecap:round;stroke-linejoin:miter;stroke-miterlimit:4;stroke-dasharray:none;stroke-opacity:1" />
<path
 style="fill:none;fill-rule:evenodd;stroke:#000000;stroke-width:1.75;stroke-linecap:round;stroke-linejoin:miter;stroke-miterlimit:4;stroke-dasharray:none;stroke-opacity:1"
 d="m 282.59394,317.29077 h 27.66928"
 id="path4322"
 inkscape:connector-curvature="0" />
<path
 style="fill:none;fill-rule:evenodd;stroke:#000000;stroke-width:1.75;stroke-linecap:round;stroke-linejoin:miter;stroke-miterlimit:4;stroke-dasharray:none;stroke-opacity:1"
 d="m 308.41532,380.57649 h 6.02652"
 id="path4324"
 inkscape:connector-curvature="0" />
<path
 inkscape:connector-curvature="0"
 id="path4328"
 d="m 295.23773,365.75506 h 3.81026"
 style="fill:none;fill-rule:evenodd;stroke:#000000;stroke-width:1.75;stroke-linecap:round;stroke-linejoin:miter;stroke-miterlimit:4;stroke-dasharray:none;stroke-opacity:1" />
<path
 inkscape:connector-curvature="0"
 id="path4330"
 d="m 291.98875,409.86221 h 4.82416"
 style="fill:none;fill-rule:evenodd;stroke:#000000;stroke-width:1.75;stroke-linecap:round;stroke-linejoin:miter;stroke-miterlimit:4;stroke-dasharray:none;stroke-opacity:1" />
<path
 style="fill:none;fill-rule:evenodd;stroke:#000000;stroke-width:1.75;stroke-linecap:round;stroke-linejoin:miter;stroke-miterlimit:4;stroke-dasharray:none;stroke-opacity:1"
 d="m 305.80757,389.14792 h 10.04624"
 id="path4334"
 inkscape:connector-curvature="0" />
<path
 inkscape:connector-curvature="0"
 id="path4336"
 d="m 293.06947,402.71935 h 16.72076"
 style="fill:none;fill-rule:evenodd;stroke:#000000;stroke-width:1.75;stroke-linecap:round;stroke-linejoin:miter;stroke-miterlimit:4;stroke-dasharray:none;stroke-opacity:1" />
<path
 style="fill:none;fill-rule:evenodd;stroke:#000000;stroke-width:1.75;stroke-linecap:round;stroke-linejoin:miter;stroke-miterlimit:4;stroke-dasharray:none;stroke-opacity:1"
 d="m 290.87614,418.43364 h 4.945"
 id="path4338"
 inkscape:connector-curvature="0" />
<path
 inkscape:connector-curvature="0"
 id="path4340"
 d="m 300.97767,418.43364 h 4.945"
 style="fill:none;fill-rule:evenodd;stroke:#000000;stroke-width:1.75;stroke-linecap:round;stroke-linejoin:miter;stroke-miterlimit:4;stroke-dasharray:none;stroke-opacity:1" />
<path
 style="fill:none;fill-rule:evenodd;stroke:#000000;stroke-width:1.75;stroke-linecap:round;stroke-linejoin:miter;stroke-miterlimit:4;stroke-dasharray:none;stroke-opacity:1"
 d="m 280.72267,424.99963 h 19.19104"
 id="path4342"
 inkscape:connector-curvature="0" />
<path
 inkscape:connector-curvature="0"
 id="path4348"
 d="m 398.47924,288.3622 h 8.04152"
 style="fill:none;fill-rule:evenodd;stroke:#000000;stroke-width:1.75;stroke-linecap:round;stroke-linejoin:miter;stroke-miterlimit:4;stroke-dasharray:none;stroke-opacity:1" />
<path
 sodipodi:nodetypes="cccccccccccccccccccc"
 inkscape:connector-curvature="0"
 id="path4350"
 d="m 313.23487,131.8634 c -15.66295,11.01609 -24.99793,29.17446 -25.03235,48.32337 -3e-4,32.55169 26.38813,58.94012 58.93982,58.93982 32.50526,-0.002 58.90422,-26.53899 58.96754,-59.04419 -1.06403,-1.25265 -2.18016,-2.48757 -3.28517,-3.70423 -0.53963,-0.5474 -1.08347,-1.09063 -1.63148,-1.62964 -2.89468,-2.93047 -5.90998,-5.73929 -9.03808,-8.41919 -0.73335,-0.61008 -1.47252,-1.21314 -2.21741,-1.80908 -3.05763,-2.524 -6.21506,-4.92461 -9.46472,-7.19604 -0.8655,-0.58652 -1.73713,-1.16394 -2.61474,-1.73218 -3.25754,-2.17846 -6.6,-4.22718 -10.01953,-6.14136 -0.88574,-0.47834 -1.77629,-0.94773 -2.67151,-1.40809 -3.52583,-1.88212 -7.12617,-3.6212 -10.79224,-5.213 -0.79068,-0.32785 -1.58417,-0.64891 -2.38037,-0.96314 -3.87359,-1.60271 -7.81327,-3.04077 -11.80848,-4.3103 -0.55082,-0.16492 -1.10258,-0.32667 -1.65527,-0.48523 -4.32952,-1.31846 -8.71703,-2.43841 -13.1488,-3.35633 -0.14705,-0.0277 -0.29415,-0.0551 -0.44128,-0.0824 -3.87693,-0.74489 -7.782,-1.33496 -11.70593,-1.7688 z"
 style="opacity:1;fill:#f2f2f2;fill-opacity:1;fill-rule:nonzero;stroke:none;stroke-width:2.51570058;stroke-linecap:round;stroke-linejoin:round;stroke-miterlimit:4;stroke-dasharray:none;stroke-dashoffset:0;stroke-opacity:1" />
<circle
 r="6.7857141"
 cy="157.71936"
 cx="325.35712"
 id="path4352"
 style="opacity:1;fill:#e6e6e6;fill-opacity:1;fill-rule:nonzero;stroke:none;stroke-width:2.5;stroke-linecap:round;stroke-linejoin:round;stroke-miterlimit:4;stroke-dasharray:none;stroke-dashoffset:0;stroke-opacity:1" />
<circle
 r="11.071428"
 style="opacity:1;fill:#e6e6e6;fill-opacity:1;fill-rule:nonzero;stroke:none;stroke-width:2.5;stroke-linecap:round;stroke-linejoin:round;stroke-miterlimit:4;stroke-dasharray:none;stroke-dashoffset:0;stroke-opacity:1"
 id="circle4354"
 cx="391.78571"
 cy="188.43367" />
<circle
 cy="202.71936"
 cx="332.50003"
 id="circle4358"
 style="opacity:1;fill:#e6e6e6;fill-opacity:1;fill-rule:nonzero;stroke:none;stroke-width:2.5;stroke-linecap:round;stroke-linejoin:round;stroke-miterlimit:4;stroke-dasharray:none;stroke-dashoffset:0;stroke-opacity:1"
 r="13.928571" />
<path
 style="fill:none;fill-rule:evenodd;stroke:#000000;stroke-width:1.75;stroke-linecap:round;stroke-linejoin:miter;stroke-miterlimit:4;stroke-dasharray:none;stroke-opacity:1"
 d="m 369.76904,395.21935 h 4.03338"
 id="path4414"
 inkscape:connector-curvature="0" />
<path
 inkscape:connector-curvature="0"
 id="path4416"
 d="m 321.08264,415.57649 h -3.59383"
 style="fill:none;fill-rule:evenodd;stroke:#000000;stroke-width:1.75;stroke-linecap:round;stroke-linejoin:miter;stroke-miterlimit:4;stroke-dasharray:none;stroke-opacity:1" />
<path
 inkscape:connector-curvature="0"
 id="path4420"
 d="m 324.07606,374.14792 h 16.8479"
 style="fill:none;fill-rule:evenodd;stroke:#000000;stroke-width:1.75;stroke-linecap:round;stroke-linejoin:miter;stroke-miterlimit:4;stroke-dasharray:none;stroke-opacity:1" />
<path
 style="fill:none;fill-rule:evenodd;stroke:#000000;stroke-width:1.75;stroke-linecap:round;stroke-linejoin:miter;stroke-miterlimit:4;stroke-dasharray:none;stroke-opacity:1"
 d="m 348.37907,374.50506 h 23.95618"
 id="path4422"
 inkscape:connector-curvature="0" />
</g>
</g>
</g>
</svg>
