<?xml version="1.0" encoding="UTF-8" standalone="no"?>
<!-- Created with Inkscape (http://www.inkscape.org/) -->

<svg
 xmlns:dc="http://purl.org/dc/elements/1.1/"
 xmlns:cc="http://creativecommons.org/ns#"
 xmlns:rdf="http://www.w3.org/1999/02/22-rdf-syntax-ns#"
 xmlns:svg="http://www.w3.org/2000/svg"
 xmlns="http://www.w3.org/2000/svg"
 xmlns:xlink="http://www.w3.org/1999/xlink"
 xmlns:sodipodi="http://sodipodi.sourceforge.net/DTD/sodipodi-0.dtd"
 xmlns:inkscape="http://www.inkscape.org/namespaces/inkscape"
 width="164.92976"
 height="165.82364"
 viewBox="0 0 43.637663 43.87417"
 version="1.1"
 id="svg15969"
 inkscape:version="0.92.2 (unknown)"
 sodipodi:docname="senja.svg">
<defs
 id="defs15963">
<radialGradient
 inkscape:collect="always"
 xlink:href="#linearGradient5103"
 id="radialGradient5109"
 cx="351.42856"
 cy="452.36221"
 fx="351.42856"
 fy="452.36221"
 r="214.28572"
 gradientUnits="userSpaceOnUse"
 gradientTransform="matrix(1.926626,0.06234197,-0.02393347,0.73964302,-314.81624,95.86693)" />
<linearGradient
 inkscape:collect="always"
 id="linearGradient5103">
<stop
 style="stop-color:#ffff00;stop-opacity:1;"
 offset="0"
 id="stop5105" />
<stop
 style="stop-color:#ff0000;stop-opacity:1"
 offset="1"
 id="stop5107" />
</linearGradient>
<linearGradient
 inkscape:collect="always"
 xlink:href="#linearGradient5179"
 id="linearGradient5189"
 gradientUnits="userSpaceOnUse"
 gradientTransform="matrix(1.260274,0,0,1.8377388,1.3499454,-386.30167)"
 x1="164.19289"
 y1="429.27048"
 x2="186.22371"
 y2="427.75525" />
<linearGradient
 inkscape:collect="always"
 id="linearGradient5179">
<stop
 style="stop-color:#000000;stop-opacity:1;"
 offset="0"
 id="stop5181" />
<stop
 style="stop-color:#552200;stop-opacity:1"
 offset="1"
 id="stop5183" />
</linearGradient>
<linearGradient
 inkscape:collect="always"
 xlink:href="#linearGradient5179"
 id="linearGradient5185"
 x1="164.19289"
 y1="429.27048"
 x2="186.22371"
 y2="427.75525"
 gradientUnits="userSpaceOnUse"
 gradientTransform="matrix(1.260274,0,0,1.260274,-39.36434,-118.31786)" />
<linearGradient
 inkscape:collect="always"
 xlink:href="#linearGradient5179"
 id="linearGradient5205"
 x1="394.16"
 y1="416.90488"
 x2="283.43341"
 y2="412.61917"
 gradientUnits="userSpaceOnUse" />
<linearGradient
 inkscape:collect="always"
 xlink:href="#linearGradient5179"
 id="linearGradient5213"
 x1="436.63718"
 y1="388.24548"
 x2="346.76227"
 y2="376.10263"
 gradientUnits="userSpaceOnUse" />
<linearGradient
 inkscape:collect="always"
 xlink:href="#linearGradient5179"
 id="linearGradient5223"
 x1="487.90985"
 y1="410.59494"
 x2="451.6423"
 y2="410.59494"
 gradientUnits="userSpaceOnUse" />
<linearGradient
 inkscape:collect="always"
 xlink:href="#linearGradient5165"
 id="linearGradient5171"
 x1="354.28571"
 y1="472.36221"
 x2="348.57144"
 y2="720.93359"
 gradientUnits="userSpaceOnUse"
 gradientTransform="scale(1.0666667)" />
<linearGradient
 inkscape:collect="always"
 id="linearGradient5165">
<stop
 style="stop-color:#000000;stop-opacity:1"
 offset="0"
 id="stop5167" />
<stop
 style="stop-color:#2b1100;stop-opacity:1"
 offset="1"
 id="stop5169" />
</linearGradient>
<linearGradient
 inkscape:collect="always"
 xlink:href="#linearGradient4912"
 id="linearGradient4910"
 x1="351.42856"
 y1="745.78564"
 x2="351.42856"
 y2="492.23734"
 gradientUnits="userSpaceOnUse"
 gradientTransform="scale(1.0666667)" />
<linearGradient
 inkscape:collect="always"
 id="linearGradient4912">
<stop
 style="stop-color:#aa4400;stop-opacity:1"
 offset="0"
 id="stop4914" />
<stop
 style="stop-color:#000000;stop-opacity:1"
 offset="1"
 id="stop4916" />
</linearGradient>
<linearGradient
 inkscape:collect="always"
 xlink:href="#linearGradient5039"
 id="linearGradient5037"
 gradientUnits="userSpaceOnUse"
 x1="350.88638"
 y1="649.20551"
 x2="351.37659"
 y2="471.15256"
 gradientTransform="matrix(1.39156,0,0,1.0666667,-114.17681,0)" />
<linearGradient
 id="linearGradient5039"
 inkscape:collect="always">
<stop
 id="stop5041"
 offset="0"
 style="stop-color:#000000;stop-opacity:1" />
<stop
 id="stop5043"
 offset="1"
 style="stop-color:#5b4705;stop-opacity:0" />
</linearGradient>
<linearGradient
 inkscape:collect="always"
 xlink:href="#linearGradient5071"
 id="linearGradient5093"
 gradientUnits="userSpaceOnUse"
 x1="287.14285"
 y1="490.22375"
 x2="278.57144"
 y2="565.22375"
 gradientTransform="matrix(0.30563667,0,0,0.30563667,510.1997,344.64231)" />
<linearGradient
 inkscape:collect="always"
 id="linearGradient5071">
<stop
 style="stop-color:#f4ed89;stop-opacity:0.494"
 offset="0"
 id="stop5073" />
<stop
 style="stop-color:#916f6f;stop-opacity:0;"
 offset="1"
 id="stop5075" />
</linearGradient>
<linearGradient
 inkscape:collect="always"
 xlink:href="#linearGradient5071"
 id="linearGradient5091"
 gradientUnits="userSpaceOnUse"
 gradientTransform="matrix(-0.30563667,0,0,0.30563667,724.80029,344.64231)"
 x1="287.14285"
 y1="490.22375"
 x2="278.57144"
 y2="565.22375" />
<linearGradient
 inkscape:collect="always"
 xlink:href="#linearGradient5179"
 id="linearGradient5197"
 x1="266.42856"
 y1="375.44345"
 x2="333.90286"
 y2="362.5863"
 gradientUnits="userSpaceOnUse" />
<linearGradient
 inkscape:collect="always"
 xlink:href="#linearGradient4955"
 id="linearGradient4961"
 x1="350.88638"
 y1="649.20551"
 x2="359.04184"
 y2="487.58112"
 gradientUnits="userSpaceOnUse"
 gradientTransform="scale(1.0666667)" />
<linearGradient
 inkscape:collect="always"
 id="linearGradient4955">
<stop
 style="stop-color:#151515;stop-opacity:1;"
 offset="0"
 id="stop4957" />
<stop
 style="stop-color:#151515;stop-opacity:0;"
 offset="1"
 id="stop4959" />
</linearGradient>
<linearGradient
 inkscape:collect="always"
 xlink:href="#linearGradient4799"
 id="linearGradient4805"
 x1="191.9693"
 y1="583.08832"
 x2="345.4722"
 y2="591.16956"
 gradientUnits="userSpaceOnUse" />
<linearGradient
 inkscape:collect="always"
 id="linearGradient4799">
<stop
 style="stop-color:#ff5900;stop-opacity:1;"
 offset="0"
 id="stop4801" />
<stop
 style="stop-color:#ff5900;stop-opacity:0;"
 offset="1"
 id="stop4803" />
</linearGradient>
<linearGradient
 inkscape:collect="always"
 xlink:href="#linearGradient4799"
 id="linearGradient4809"
 gradientUnits="userSpaceOnUse"
 x1="191.9693"
 y1="583.08832"
 x2="356.58386"
 y2="583.08832"
 gradientTransform="matrix(1.0666667,0,0,1.0666667,1.077496,0)" />
<linearGradient
 inkscape:collect="always"
 xlink:href="#linearGradient4799"
 id="linearGradient4815"
 gradientUnits="userSpaceOnUse"
 x1="278.84241"
 y1="590.15936"
 x2="356.58386"
 y2="583.08832"
 gradientTransform="matrix(1.0666667,0,0,1.0666667,1.077496,0)" />
<linearGradient
 inkscape:collect="always"
 xlink:href="#linearGradient4799"
 id="linearGradient4821"
 gradientUnits="userSpaceOnUse"
 x1="275.81195"
 y1="595.21014"
 x2="329.30975"
 y2="496.21521"
 gradientTransform="matrix(1.0666667,0,0,1.0666667,1.077496,0)" />
<linearGradient
 inkscape:collect="always"
 xlink:href="#linearGradient4932"
 id="linearGradient4938"
 x1="207.44711"
 y1="573.07007"
 x2="347.2901"
 y2="573.07007"
 gradientUnits="userSpaceOnUse"
 gradientTransform="matrix(1.0666667,0,0,1.0666667,1.077496,0)" />
<linearGradient
 inkscape:collect="always"
 id="linearGradient4932">
<stop
 style="stop-color:#ff2a2a;stop-opacity:1;"
 offset="0"
 id="stop4934" />
<stop
 style="stop-color:#ff2a2a;stop-opacity:0;"
 offset="1"
 id="stop4936" />
</linearGradient>
<linearGradient
 inkscape:collect="always"
 xlink:href="#linearGradient4932"
 id="linearGradient4948"
 x1="253.54829"
 y1="585.16663"
 x2="341.43155"
 y2="585.16663"
 gradientUnits="userSpaceOnUse"
 gradientTransform="matrix(1.0666667,0,0,1.0666667,-11.852456,-7.5424723)" />
<linearGradient
 inkscape:collect="always"
 xlink:href="#linearGradient4829"
 id="linearGradient4835"
 x1="465.1355"
 y1="615.47723"
 x2="524.35382"
 y2="555.87817"
 gradientUnits="userSpaceOnUse" />
<linearGradient
 inkscape:collect="always"
 id="linearGradient4829">
<stop
 style="stop-color:#ffdd55;stop-opacity:1"
 offset="0"
 id="stop4831" />
<stop
 style="stop-color:#000000;stop-opacity:0;"
 offset="1"
 id="stop4833" />
</linearGradient>
<linearGradient
 inkscape:collect="always"
 xlink:href="#linearGradient4829"
 id="linearGradient4969"
 gradientUnits="userSpaceOnUse"
 x1="465.1355"
 y1="615.47723"
 x2="524.35382"
 y2="555.87817"
 gradientTransform="scale(1.0666667)" />
<linearGradient
 inkscape:collect="always"
 xlink:href="#linearGradient4799"
 id="linearGradient4851"
 gradientUnits="userSpaceOnUse"
 x1="191.9693"
 y1="583.08832"
 x2="356.58386"
 y2="583.08832" />
<linearGradient
 inkscape:collect="always"
 xlink:href="#linearGradient4871"
 id="linearGradient4855"
 gradientUnits="userSpaceOnUse"
 x1="186.3976"
 y1="564.39154"
 x2="356.58386"
 y2="583.08832"
 gradientTransform="matrix(-1.0631463,-0.08658928,-0.08658928,1.0631463,788.72895,23.647099)" />
<linearGradient
 id="linearGradient4871"
 inkscape:collect="always">
<stop
 id="stop4873"
 offset="0"
 style="stop-color:#ffd42a;stop-opacity:1" />
<stop
 id="stop4875"
 offset="1"
 style="stop-color:#ff5900;stop-opacity:0;" />
</linearGradient>
<linearGradient
 inkscape:collect="always"
 xlink:href="#linearGradient4877"
 id="linearGradient4857"
 gradientUnits="userSpaceOnUse"
 x1="278.84241"
 y1="590.15936"
 x2="356.58386"
 y2="583.08832"
 gradientTransform="matrix(-1.0631463,-0.08658928,-0.08658928,1.0631463,788.72895,23.647099)" />
<linearGradient
 id="linearGradient4877"
 inkscape:collect="always">
<stop
 id="stop4879"
 offset="0"
 style="stop-color:#ffcc00;stop-opacity:1" />
<stop
 id="stop4881"
 offset="1"
 style="stop-color:#ff5900;stop-opacity:0;" />
</linearGradient>
<linearGradient
 inkscape:collect="always"
 xlink:href="#linearGradient4799"
 id="linearGradient4859"
 gradientUnits="userSpaceOnUse"
 x1="278.84241"
 y1="590.15936"
 x2="356.58386"
 y2="583.08832"
 gradientTransform="matrix(-1.0631463,-0.08658928,-0.08658928,1.0631463,788.72895,23.647099)" />
<linearGradient
 inkscape:collect="always"
 xlink:href="#linearGradient4877"
 id="linearGradient4861"
 gradientUnits="userSpaceOnUse"
 x1="275.81195"
 y1="595.21014"
 x2="330.56259"
 y2="493.27676"
 gradientTransform="matrix(-1.0631463,-0.08658928,-0.08658928,1.0631463,788.72895,23.647099)" />
<linearGradient
 inkscape:collect="always"
 xlink:href="#linearGradient5071"
 id="linearGradient5081"
 gradientUnits="userSpaceOnUse"
 x1="287.14285"
 y1="490.22375"
 x2="278.57144"
 y2="565.22375"
 gradientTransform="matrix(-1,0,0,1,702.14285,0)" />
<linearGradient
 inkscape:collect="always"
 xlink:href="#linearGradient5071"
 id="linearGradient5077"
 x1="287.14285"
 y1="490.22375"
 x2="278.57144"
 y2="565.22375"
 gradientUnits="userSpaceOnUse" />
<linearGradient
 inkscape:collect="always"
 xlink:href="#linearGradient5027"
 id="linearGradient5033"
 x1="401.44418"
 y1="595.86676"
 x2="296.91769"
 y2="596.58105"
 gradientUnits="userSpaceOnUse" />
<linearGradient
 inkscape:collect="always"
 id="linearGradient5027">
<stop
 style="stop-color:#604d00;stop-opacity:1"
 offset="0"
 id="stop5029" />
<stop
 style="stop-color:#390000;stop-opacity:1"
 offset="1"
 id="stop5031" />
</linearGradient>
<linearGradient
 inkscape:collect="always"
 xlink:href="#linearGradient5027"
 id="linearGradient5051"
 gradientUnits="userSpaceOnUse"
 x1="401.44418"
 y1="595.86676"
 x2="296.91769"
 y2="596.58105"
 gradientTransform="matrix(0.20321939,0,0,0.1968882,280.49717,367.05222)" />
<linearGradient
 inkscape:collect="always"
 xlink:href="#linearGradient4799"
 id="linearGradient20874"
 gradientUnits="userSpaceOnUse"
 gradientTransform="matrix(1.0666667,0,0,1.0666667,1.077496,0)"
 x1="191.9693"
 y1="583.08832"
 x2="356.58386"
 y2="583.08832" />
<linearGradient
 inkscape:collect="always"
 xlink:href="#linearGradient4799"
 id="linearGradient20876"
 gradientUnits="userSpaceOnUse"
 gradientTransform="matrix(1.0666667,0,0,1.0666667,1.077496,0)"
 x1="191.9693"
 y1="583.08832"
 x2="356.58386"
 y2="583.08832" />
<linearGradient
 inkscape:collect="always"
 xlink:href="#linearGradient4799"
 id="linearGradient20878"
 gradientUnits="userSpaceOnUse"
 gradientTransform="matrix(1.0666667,0,0,1.0666667,1.077496,0)"
 x1="278.84241"
 y1="590.15936"
 x2="356.58386"
 y2="583.08832" />
<linearGradient
 inkscape:collect="always"
 xlink:href="#linearGradient4799"
 id="linearGradient20880"
 gradientUnits="userSpaceOnUse"
 x1="191.9693"
 y1="583.08832"
 x2="345.4722"
 y2="591.16956" />
<linearGradient
 inkscape:collect="always"
 xlink:href="#linearGradient4829"
 id="linearGradient20882"
 gradientUnits="userSpaceOnUse"
 gradientTransform="scale(1.0666667)"
 x1="465.1355"
 y1="615.47723"
 x2="524.35382"
 y2="555.87817" />
<linearGradient
 inkscape:collect="always"
 xlink:href="#linearGradient4829"
 id="linearGradient20884"
 gradientUnits="userSpaceOnUse"
 gradientTransform="scale(1.0666667)"
 x1="465.1355"
 y1="615.47723"
 x2="524.35382"
 y2="555.87817" />
<linearGradient
 inkscape:collect="always"
 xlink:href="#linearGradient4829"
 id="linearGradient20886"
 gradientUnits="userSpaceOnUse"
 x1="465.1355"
 y1="615.47723"
 x2="524.35382"
 y2="555.87817" />
<linearGradient
 inkscape:collect="always"
 xlink:href="#linearGradient4799"
 id="linearGradient20888"
 gradientUnits="userSpaceOnUse"
 x1="191.9693"
 y1="583.08832"
 x2="356.58386"
 y2="583.08832" />
</defs>
<sodipodi:namedview
 id="base"
 pagecolor="#ffffff"
 bordercolor="#666666"
 borderopacity="1.0"
 inkscape:pageopacity="0.0"
 inkscape:pageshadow="2"
 inkscape:zoom="1.4"
 inkscape:cx="-82.350416"
 inkscape:cy="22.966721"
 inkscape:document-units="mm"
 inkscape:current-layer="g4162"
 showgrid="false"
 fit-margin-top="0"
 fit-margin-left="0"
 fit-margin-right="0"
 fit-margin-bottom="0"
 inkscape:pagecheckerboard="true"
 inkscape:window-width="1366"
 inkscape:window-height="716"
 inkscape:window-x="0"
 inkscape:window-y="25"
 inkscape:window-maximized="1"
 units="px" />
<metadata
 id="metadata15966">
<rdf:RDF>
<cc:Work
 rdf:about="">
<dc:format>image/svg+xml</dc:format>
<dc:type
 rdf:resource="http://purl.org/dc/dcmitype/StillImage" />
<dc:title></dc:title>
</cc:Work>
</rdf:RDF>
</metadata>
<g
 inkscape:label="Layer 1"
 inkscape:groupmode="layer"
 id="layer1"
 transform="translate(62.608173,-14.850243)">
<g
 id="g4162"
 transform="matrix(0.16002537,0,0,0.16002537,-154.35869,-65.599601)">
<g
 transform="matrix(0.63628171,0,0,0.63628171,486.08834,351.24809)"
 id="g5098">
<circle
 r="214.28572"
 cy="452.36221"
 cx="351.42856"
 id="path4136"
 style="opacity:1;fill:url(#radialGradient5109);fill-opacity:1;fill-rule:nonzero;stroke:none;stroke-width:2.5999999;stroke-linecap:round;stroke-linejoin:round;stroke-miterlimit:4;stroke-dasharray:none;stroke-dashoffset:0;stroke-opacity:1" />
<rect
 y="359.69827"
 x="191.09154"
 height="93.199608"
 width="32.85714"
 id="rect5187"
 style="opacity:1;fill:url(#linearGradient5189);fill-opacity:1;fill-rule:nonzero;stroke:none;stroke-width:3.98600006;stroke-linecap:round;stroke-linejoin:round;stroke-miterlimit:4;stroke-dasharray:none;stroke-dashoffset:0;stroke-opacity:1" />
<circle
 r="57.500004"
 cy="465.57648"
 cx="361.07144"
 id="path4230"
 style="opacity:1;fill:#fff6d5;fill-opacity:1;fill-rule:nonzero;stroke:none;stroke-width:2.5999999;stroke-linecap:round;stroke-linejoin:round;stroke-miterlimit:4;stroke-dasharray:none;stroke-dashoffset:0;stroke-opacity:1" />
<path
 inkscape:connector-curvature="0"
 id="ellipse5173"
 transform="scale(0.9375)"
 d="m 379.2793,476.62109 a 243.51411,14.687661 0 0 0 -232.83594,10.39258 228.57143,228.57143 0 0 0 0.30469,8.60547 243.51411,14.687661 0 0 0 232.53125,10.37695 243.51411,14.687661 0 0 0 223.41797,-8.85937 228.57143,228.57143 0 0 0 0.57812,-11.55078 243.51411,14.687661 0 0 0 -223.99609,-8.96485 z"
 style="opacity:1;fill:#2b1100;fill-opacity:1;fill-rule:nonzero;stroke:none;stroke-width:2.77333331;stroke-linecap:round;stroke-linejoin:round;stroke-miterlimit:4;stroke-dasharray:none;stroke-dashoffset:0;stroke-opacity:1" />
<rect
 style="opacity:1;fill:url(#linearGradient5185);fill-opacity:1;fill-rule:nonzero;stroke:none;stroke-width:3.98600006;stroke-linecap:round;stroke-linejoin:round;stroke-miterlimit:4;stroke-dasharray:none;stroke-dashoffset:0;stroke-opacity:1"
 id="rect5177"
 width="32.85714"
 height="63.913891"
 x="150.37726"
 y="393.26971" />
<rect
 y="370.50922"
 x="364.16"
 height="89.934189"
 width="41.416252"
 id="rect4204"
 style="opacity:1;fill:url(#linearGradient5205);fill-opacity:1;fill-rule:nonzero;stroke:none;stroke-width:2.5999999;stroke-linecap:round;stroke-linejoin:round;stroke-miterlimit:4;stroke-dasharray:none;stroke-dashoffset:0;stroke-opacity:1" />
<rect
 style="opacity:1;fill:url(#linearGradient5213);fill-opacity:1;fill-rule:nonzero;stroke:none;stroke-width:2.5999999;stroke-linecap:round;stroke-linejoin:round;stroke-miterlimit:4;stroke-dasharray:none;stroke-dashoffset:0;stroke-opacity:1"
 id="rect4206"
 width="47.982246"
 height="142.96719"
 x="411.63718"
 y="317.4762" />
<rect
 y="370.74649"
 x="467.19556"
 height="89.696915"
 width="45.875286"
 id="rect4208"
 style="opacity:1;fill:url(#linearGradient5223);fill-opacity:1;fill-rule:nonzero;stroke:none;stroke-width:2.5999999;stroke-linecap:round;stroke-linejoin:round;stroke-miterlimit:4;stroke-dasharray:none;stroke-dashoffset:0;stroke-opacity:1" />
<path
 inkscape:connector-curvature="0"
 id="path4210"
 transform="scale(0.9375)"
 d="m 379.2793,479.28711 a 243.51411,15.068613 0 0 0 -232.73242,10.63867 228.57143,228.57143 0 0 0 0.32421,8.87695 243.51411,15.068613 0 0 0 232.40821,10.6211 243.51411,15.068613 0 0 0 223.25586,-9.06641 228.57143,228.57143 0 0 0 0.5957,-11.89062 243.51411,15.068613 0 0 0 -223.85156,-9.17969 z"
 style="opacity:1;fill:#000000;fill-opacity:1;fill-rule:nonzero;stroke:none;stroke-width:2.77333331;stroke-linecap:round;stroke-linejoin:round;stroke-miterlimit:4;stroke-dasharray:none;stroke-dashoffset:0;stroke-opacity:1" />
<path
 inkscape:connector-curvature="0"
 id="path4212"
 transform="scale(0.9375)"
 d="m 146.58984,491.14062 a 228.57143,228.57143 0 0 0 71.20704,157.06055 L 374.85742,491.14062 Z"
 style="fill:#000000;fill-rule:evenodd;stroke:none;stroke-width:1.06666672px;stroke-linecap:butt;stroke-linejoin:miter;stroke-opacity:1" />
<path
 inkscape:connector-curvature="0"
 id="rect5163"
 transform="scale(0.9375)"
 d="M 146.77148,496.23438 A 228.57143,228.57143 0 0 0 374.85742,711.0918 228.57143,228.57143 0 0 0 602.74219,496.23438 Z"
 style="opacity:1;fill:url(#linearGradient5171);fill-opacity:1;fill-rule:nonzero;stroke:none;stroke-width:4.2517333;stroke-linecap:round;stroke-linejoin:round;stroke-miterlimit:4;stroke-dasharray:none;stroke-dashoffset:0;stroke-opacity:1" />
<path
 inkscape:connector-curvature="0"
 id="path4186"
 transform="scale(0.9375)"
 d="M 374.85742,482.51953 213.33398,644.04297 a 228.57143,228.57143 0 0 0 161.52344,67.04883 228.57143,228.57143 0 0 0 161.52344,-67.04883 z"
 style="fill:url(#linearGradient4910);fill-opacity:1;fill-rule:evenodd;stroke:none;stroke-width:1.06666672px;stroke-linecap:butt;stroke-linejoin:miter;stroke-opacity:1" />
<path
 inkscape:connector-curvature="0"
 id="path5035"
 transform="scale(0.9375)"
 d="m 374.85742,482.4707 -29.95117,226.40039 a 228.57143,228.57143 0 0 0 29.95117,2.22071 228.57143,228.57143 0 0 0 29.94922,-2.2461 z"
 style="fill:url(#linearGradient5037);fill-opacity:1;fill-rule:evenodd;stroke:none;stroke-width:4.2517333;stroke-linecap:butt;stroke-linejoin:miter;stroke-miterlimit:4;stroke-dasharray:none;stroke-opacity:1" />
<g
 style="stroke:none"
 transform="translate(-267.14286,-23.571428)"
 id="g5099">
<path
 sodipodi:nodetypes="ccccc"
 inkscape:connector-curvature="0"
 id="path5085-7"
 d="m 597.52446,490.76002 -22.70444,34.92991 c 9.2151,17.59946 36.34688,4.66612 46.71875,-6.54937 L 601.8907,491.41495 Z"
 style="fill:url(#linearGradient5093);fill-opacity:1;fill-rule:evenodd;stroke:none;stroke-width:1px;stroke-linecap:butt;stroke-linejoin:miter;stroke-opacity:1" />
<path
 sodipodi:nodetypes="csacsscascc"
 inkscape:connector-curvature="0"
 id="path5089-8"
 d="m 576.22575,526.99979 c 0.30694,0.10285 0.16628,-16.39762 0,-25.59518 -0.0659,-3.64306 2.17955,-7.65222 5.27533,-9.57377 6.31424,-3.91925 22.27368,-0.97691 22.27368,-0.97691 0,0 0.39076,1.1723 -1.56307,1.1723 -1.95383,0 -5.07996,0.19538 -5.86149,-0.39077 -0.78153,-0.58615 -1.17229,-0.78153 -1.17229,-0.78153 0,0 -9.0887,-0.34926 -12.69991,1.95383 -2.37581,1.51519 -4.57713,4.21816 -4.68919,7.03379 -0.38053,9.56144 0.40146,27.31883 0,27.15824 z"
 style="fill:#170e08;fill-opacity:1;fill-rule:evenodd;stroke:none;stroke-width:1px;stroke-linecap:butt;stroke-linejoin:miter;stroke-opacity:1" />
</g>
<g
 style="stroke:none"
 transform="translate(-264.26034,-25.173315)"
 id="g5095">
<path
 style="fill:url(#linearGradient5091);fill-opacity:1;fill-rule:evenodd;stroke:none;stroke-width:1px;stroke-linecap:butt;stroke-linejoin:miter;stroke-opacity:1"
 d="m 637.47553,490.76002 22.70444,34.92991 c -9.2151,17.59946 -36.34688,4.66612 -46.71875,-6.54937 l 19.64807,-27.72561 z"
 id="path5083"
 inkscape:connector-curvature="0"
 sodipodi:nodetypes="ccccc" />
<path
 style="fill:#21140c;fill-opacity:1;fill-rule:evenodd;stroke:none;stroke-width:1px;stroke-linecap:butt;stroke-linejoin:miter;stroke-opacity:1"
 d="m 659.03816,526.99979 c -0.30694,0.10285 -0.1663,-16.39762 0,-25.59518 0.0659,-3.64306 -2.17956,-7.65222 -5.27535,-9.57377 -6.31423,-3.91925 -22.27367,-0.97691 -22.27367,-0.97691 0,0 -0.39076,1.1723 1.56307,1.1723 1.95383,0 5.07996,0.19538 5.86149,-0.39077 0.78153,-0.58615 1.1723,-0.78153 1.1723,-0.78153 0,0 9.08869,-0.34926 12.6999,1.95383 2.37581,1.51519 4.57713,4.21816 4.68919,7.03379 0.38053,9.56144 -0.40146,27.31883 0,27.15824 z"
 id="path5087-7"
 inkscape:connector-curvature="0"
 sodipodi:nodetypes="csacsscascc" />
</g>
<rect
 y="418.30057"
 x="159.99998"
 height="42.14286"
 width="59.617157"
 id="rect4216"
 style="opacity:1;fill:#000000;fill-opacity:1;fill-rule:nonzero;stroke:none;stroke-width:2.5999999;stroke-linecap:round;stroke-linejoin:round;stroke-miterlimit:4;stroke-dasharray:none;stroke-dashoffset:0;stroke-opacity:1" />
<rect
 style="opacity:1;fill:url(#linearGradient5197);fill-opacity:1;fill-rule:nonzero;stroke:none;stroke-width:2.5999999;stroke-linecap:round;stroke-linejoin:round;stroke-miterlimit:4;stroke-dasharray:none;stroke-dashoffset:0;stroke-opacity:1"
 id="rect4218"
 width="64.617157"
 height="167.14287"
 x="227.14285"
 y="293.30057" />
<path
 inkscape:connector-curvature="0"
 id="path4220"
 d="m 301.78955,452.81417 v -10.10724 h 4.08177 v 10.10724 z"
 style="fill:#000000;fill-rule:evenodd;stroke:none;stroke-width:0.54423606px;stroke-linecap:butt;stroke-linejoin:miter;stroke-opacity:1" />
<circle
 r="7.8233924"
 cy="439.15967"
 cx="304.07339"
 id="path4222"
 style="opacity:1;fill:#000000;fill-opacity:1;fill-rule:nonzero;stroke:none;stroke-width:2.5999999;stroke-linecap:round;stroke-linejoin:round;stroke-miterlimit:4;stroke-dasharray:none;stroke-dashoffset:0;stroke-opacity:1" />
<path
 style="fill:#000000;fill-rule:evenodd;stroke:none;stroke-width:0.54423606px;stroke-linecap:butt;stroke-linejoin:miter;stroke-opacity:1"
 d="m 318.69974,452.81417 v -10.10724 h 4.08177 v 10.10724 z"
 id="path4224"
 inkscape:connector-curvature="0" />
<circle
 style="opacity:1;fill:#000000;fill-opacity:1;fill-rule:nonzero;stroke:none;stroke-width:2.5999999;stroke-linecap:round;stroke-linejoin:round;stroke-miterlimit:4;stroke-dasharray:none;stroke-dashoffset:0;stroke-opacity:1"
 id="circle4226"
 cx="320.98358"
 cy="439.15967"
 r="7.8233924" />
<path
 inkscape:connector-curvature="0"
 id="path4228"
 transform="scale(0.9375)"
 d="m 374.85742,482.4707 -23.06445,227.44141 a 228.57143,228.57143 0 0 0 23.06445,1.17969 228.57143,228.57143 0 0 0 23.04102,-1.40821 z"
 style="fill:url(#linearGradient4961);fill-opacity:1;fill-rule:evenodd;stroke:none;stroke-width:4.2517333;stroke-linecap:butt;stroke-linejoin:miter;stroke-miterlimit:4;stroke-dasharray:none;stroke-opacity:1" />
<path
 inkscape:connector-curvature="0"
 id="path4268"
 d="m 522.14083,447.87151 v 10.62227 h 2.74123 v -10.96492 z"
 style="fill:#000000;fill-rule:evenodd;stroke:none;stroke-width:0.79746699px;stroke-linecap:butt;stroke-linejoin:miter;stroke-opacity:1" />
<path
 sodipodi:nodetypes="cccc"
 inkscape:connector-curvature="0"
 id="path4270"
 d="m 516.31572,448.21417 14.39145,0.34265 -7.02463,-34.54074 z"
 style="fill:#000000;fill-rule:evenodd;stroke:none;stroke-width:0.79746699px;stroke-linecap:butt;stroke-linejoin:miter;stroke-opacity:1" />
<path
 style="fill:#000000;fill-rule:evenodd;stroke:none;stroke-width:0.79746699px;stroke-linecap:butt;stroke-linejoin:miter;stroke-opacity:1"
 d="m 539.8185,450.90197 v 10.62227 h 2.74123 v -10.96492 z"
 id="path4272"
 inkscape:connector-curvature="0" />
<path
 style="fill:#000000;fill-rule:evenodd;stroke:none;stroke-width:0.79746699px;stroke-linecap:butt;stroke-linejoin:miter;stroke-opacity:1"
 d="m 533.99339,451.24463 14.39145,0.34265 -7.02463,-34.54074 z"
 id="path4274"
 inkscape:connector-curvature="0"
 sodipodi:nodetypes="cccc" />
<path
 inkscape:connector-curvature="0"
 id="path4276"
 d="m 556.48602,452.4172 v 10.62227 h 2.74123 v -10.96492 z"
 style="fill:#000000;fill-rule:evenodd;stroke:none;stroke-width:0.79746699px;stroke-linecap:butt;stroke-linejoin:miter;stroke-opacity:1" />
<path
 sodipodi:nodetypes="cccc"
 inkscape:connector-curvature="0"
 id="path4278"
 d="m 550.66091,452.75986 14.39145,0.34265 -7.02463,-34.54074 z"
 style="fill:#000000;fill-rule:evenodd;stroke:none;stroke-width:0.79746699px;stroke-linecap:butt;stroke-linejoin:miter;stroke-opacity:1" />
<g
 transform="translate(1.0101525)"
 style="fill:url(#linearGradient20880);fill-opacity:1;stroke:none"
 id="g4790">
<path
 inkscape:connector-curvature="0"
 id="path4756"
 transform="matrix(0.9375,0,0,0.9375,-1.0101525,0)"
 d="m 374.49805,477.29688 c -3.09386,5.32033 -93.27138,124.02597 -140.27735,185.07031 a 228.57143,228.57143 0 0 0 0.0527,0.0391 c 27.60587,-33.18462 63.96094,-74.70117 63.96094,-74.70117 0,0 57.63562,-69.60371 64.17382,-79.25196 6.53821,-9.64824 12.08985,-31.15625 12.08985,-31.15624 z"
 style="fill:url(#linearGradient20874);fill-opacity:1;fill-rule:evenodd;stroke:none;stroke-width:1.06666672px;stroke-linecap:butt;stroke-linejoin:miter;stroke-opacity:1" />
<path
 inkscape:connector-curvature="0"
 id="path4758"
 transform="matrix(0.9375,0,0,0.9375,-1.0101525,0)"
 d="m 381.43359,474.94531 c -4.30998,7.54248 -65.72812,92.66473 -85.12304,123.91211 -8.8976,14.33502 -27.91626,46.4686 -44.94727,75.72266 a 228.57143,228.57143 0 0 0 3.72852,2.28711 c 29.0179,-45.49214 65.54739,-103.13124 70.3125,-109.25781 7.54247,-9.69747 56.02929,-92.66407 56.02929,-92.66407 z"
 style="fill:url(#linearGradient20876);fill-opacity:1;fill-rule:evenodd;stroke:none;stroke-width:1.06666672px;stroke-linecap:butt;stroke-linejoin:miter;stroke-opacity:1" />
<path
 inkscape:connector-curvature="0"
 id="path4760"
 transform="matrix(0.9375,0,0,0.9375,-1.0101525,0)"
 d="m 376.04688,486.79688 c 0,0 -3.64131,7.25145 -7.30469,14.53124 4.18477,-7.65176 6.97696,-13.05648 7.30469,-14.53124 z m -7.30469,14.53124 c -22.8516,41.78364 -92.89244,159.68476 -100.07031,183.42383 a 228.57143,228.57143 0 0 0 8.4746,4.09375 c 11.46032,-30.70998 23.61334,-61.08953 28.86329,-68.43945 8.68801,-12.16323 47.48156,-88.77196 62.73242,-119.07813 z"
 style="fill:url(#linearGradient4809);fill-opacity:1;fill-rule:evenodd;stroke:none;stroke-width:1.06666672px;stroke-linecap:butt;stroke-linejoin:miter;stroke-opacity:1" />
<path
 inkscape:connector-curvature="0"
 id="path4762"
 transform="matrix(0.9375,0,0,0.9375,-1.0101525,0)"
 d="m 368.50391,484.64258 c 0,0 -25.86045,89.43187 -37.71289,109.9043 -7.01549,12.11765 -22.30257,63.02103 -33.63868,102.6289 a 228.57143,228.57143 0 0 0 7.00196,2.55469 c 15.07116,-38.01321 43.79007,-109.55439 47.10937,-127.81055 4.30999,-23.70492 17.24024,-87.27734 17.24024,-87.27734 z"
 style="fill:url(#linearGradient20878);fill-opacity:1;fill-rule:evenodd;stroke:none;stroke-width:1.06666672px;stroke-linecap:butt;stroke-linejoin:miter;stroke-opacity:1" />
<path
 inkscape:connector-curvature="0"
 id="path4764"
 transform="matrix(0.9375,0,0,0.9375,-1.0101525,0)"
 d="m 372.81445,478.17773 c 0,0 -1.24859,13.28276 -2.89257,27.11133 2.20733,-10.57314 3.70529,-18.27534 3.96874,-20.64648 z m -2.89257,27.11133 c -6.82023,32.66888 -20.50293,93.16194 -26.20118,111.88477 -3.96456,13.02643 -13.55087,52.10138 -22.25586,87.32226 a 228.57143,228.57143 0 0 0 3.78907,0.96875 c 8.30513,-32.73116 22.13374,-83.12778 26.00976,-94.75586 5.38749,-16.16244 10.77532,-66.80449 14.00781,-76.50195 1.5019,-4.50569 3.22366,-16.91679 4.6504,-28.91797 z"
 style="fill:url(#linearGradient4815);fill-opacity:1;fill-rule:evenodd;stroke:none;stroke-width:1.06666672px;stroke-linecap:butt;stroke-linejoin:miter;stroke-opacity:1" />
<path
 inkscape:connector-curvature="0"
 id="path4768"
 transform="matrix(0.9375,0,0,0.9375,-1.0101525,0)"
 d="m 367.42578,477.09961 c -5.9088,10.97348 -86.52038,133.3234 -125.08594,191.44141 a 228.57143,228.57143 0 0 0 8.62891,5.79687 c 30.19135,-46.7952 70.96801,-110.56883 74.43555,-117.50391 5.38748,-10.77495 42.02148,-79.73437 42.02148,-79.73437 z"
 style="fill:url(#linearGradient4821);fill-opacity:1;fill-rule:evenodd;stroke:none;stroke-width:1.06666672px;stroke-linecap:butt;stroke-linejoin:miter;stroke-opacity:1" />
<path
 inkscape:connector-curvature="0"
 id="path4928"
 transform="matrix(0.9375,0,0,0.9375,-1.0101525,0)"
 d="m 371.51953,481.86914 c 0,0 -5.01861,12.36156 -10.57422,25.13086 5.15815,-9.49013 8.8111,-16.43595 9.7461,-18.63086 z M 360.94531,507 c -15.93731,29.32201 -46.4572,83.31416 -57.30469,99.60352 -7.20377,10.81771 -26.2073,42.99936 -43.99023,73.05859 a 228.57143,228.57143 0 0 0 3.36719,2.06445 c 17.43971,-28.88932 42.96872,-69.57909 49.70703,-79.14258 9.81275,-13.92693 29.55375,-60.87432 35.44141,-69.23046 2.73564,-3.88263 7.95753,-15.27094 12.77929,-26.35352 z"
 style="fill:url(#linearGradient4938);fill-opacity:1;fill-rule:evenodd;stroke:none;stroke-width:1.06666672px;stroke-linecap:butt;stroke-linejoin:miter;stroke-opacity:1" />
<path
 inkscape:connector-curvature="0"
 id="path4940"
 transform="matrix(0.9375,0,0,0.9375,-1.0101525,0)"
 d="m 352.3418,501.88281 c 0,0 -20.47322,63.5713 -24.78321,78.65625 -2.90552,10.16935 -31.04427,68.80007 -50.54492,108.24219 a 228.57143,228.57143 0 0 0 9.58203,4.54102 c 4.86194,-11.05494 9.70793,-22.41697 12.94727,-30.89258 20.11219,-52.62273 52.79883,-160.54688 52.79883,-160.54688 z"
 style="fill:url(#linearGradient4948);fill-opacity:1;fill-rule:evenodd;stroke:none;stroke-width:1.06666672px;stroke-linecap:butt;stroke-linejoin:miter;stroke-opacity:1" />
</g>
<g
 style="fill:url(#linearGradient4835);fill-opacity:1;stroke:none"
 id="g4782">
<path
 inkscape:connector-curvature="0"
 id="path4770"
 transform="scale(0.9375)"
 d="m 374.96875,483.56445 c 8.61997,26.9374 26.93661,160.54767 38.78906,185.33008 4.53958,9.49184 7.49089,23.09111 9.41407,36.74609 a 228.57143,228.57143 0 0 0 4.14648,-0.92968 c -7.1107,-39.00417 -23.16372,-126.04779 -27.56641,-139.25586 -5.38747,-16.16243 -24.7832,-81.89063 -24.7832,-81.89063 z"
 style="fill:url(#linearGradient20882);fill-opacity:1;fill-rule:evenodd;stroke:none;stroke-width:1.06666672px;stroke-linecap:butt;stroke-linejoin:miter;stroke-opacity:1" />
<path
 inkscape:connector-curvature="0"
 id="path4772"
 transform="scale(0.9375)"
 d="m 377.12891,480.42383 c -0.12007,0.0173 0.16601,1.41406 0.16601,1.41406 13.14747,33.64678 66.60572,179.24274 68.58008,192.06641 0.56192,3.64975 3.44171,12.54359 7.19531,23.18359 a 228.57143,228.57143 0 0 0 2.11914,-0.70312 c -9.38917,-23.93428 -55.67968,-160.74219 -55.67968,-160.74219 0,0 -20.19951,-48.93362 -21.57422,-53.1582 -0.51552,-1.58422 -0.73461,-2.07091 -0.80664,-2.06055 z"
 style="fill:url(#linearGradient20884);fill-opacity:1;fill-rule:evenodd;stroke:none;stroke-width:1.06666672px;stroke-linecap:butt;stroke-linejoin:miter;stroke-opacity:1" />
<path
 inkscape:connector-curvature="0"
 id="path4774"
 d="m 425.73828,608.83008 c 9.89958,21.20262 22.47198,40.88951 35.67578,60.14062 -6.82087,-14.60482 -15.62162,-28.29508 -25.18508,-41.31973 -3.74266,-6.42867 -7.34053,-12.94021 -10.82859,-19.51035 z"
 style="fill:url(#linearGradient20886);fill-opacity:1;fill-rule:evenodd;stroke:none;stroke-width:1px;stroke-linecap:butt;stroke-linejoin:miter;stroke-opacity:1" />
<path
 inkscape:connector-curvature="0"
 id="path4778"
 transform="scale(0.9375)"
 d="m 378.56836,482.11914 c 27.73677,37.87144 106.6664,139.16079 118.71875,155.5332 3.58664,4.87224 10.36877,14.47622 17.87891,25.18164 a 228.57143,228.57143 0 0 0 3.74023,-2.99609 c -35.5876,-46.05261 -93.72636,-119.30937 -96.57227,-126.70312 -4.04096,-10.49854 -43.76562,-51.01563 -43.76562,-51.01563 z"
 style="fill:url(#linearGradient4969);fill-opacity:1;fill-rule:evenodd;stroke:none;stroke-width:1.06666672px;stroke-linecap:butt;stroke-linejoin:miter;stroke-opacity:1" />
</g>
<g
 id="g4837"
 style="fill:url(#linearGradient4805);fill-opacity:1;stroke:none"
 transform="matrix(-0.99669966,-0.08117745,-0.08117745,0.99669966,739.43339,22.169155)">
<path
 inkscape:connector-curvature="0"
 id="path4839"
 d="m 332.67188,481.26562 c -2.37063,3.05795 -10.54514,13.48134 -4.09948,5.35988 2.8835,-3.67382 5.79616,-7.23075 8.48033,-11.01612 -1.46028,1.88541 -2.92057,3.77083 -4.38085,5.65624 z"
 style="fill:url(#linearGradient20888);fill-opacity:1;fill-rule:evenodd;stroke:none;stroke-width:1px;stroke-linecap:butt;stroke-linejoin:miter;stroke-opacity:1" />
<path
 inkscape:connector-curvature="0"
 id="path4841"
 d="m 330.03906,486.12695 c -24.94225,35.28998 -49.45105,70.90628 -70.70514,108.58153 -7.25863,12.29382 -14.49232,24.60284 -21.70111,36.92629 24.22638,-38.01011 48.28345,-76.14298 73.25274,-113.65827 6.72811,-10.86042 13.27963,-21.82884 19.82343,-32.80072 l -0.57582,0.81757 z"
 style="fill:url(#linearGradient4851);fill-opacity:1;fill-rule:evenodd;stroke:none;stroke-width:1px;stroke-linecap:butt;stroke-linejoin:miter;stroke-opacity:1" />
<path
 inkscape:connector-curvature="0"
 id="path4843"
 transform="matrix(-0.93440594,-0.07610386,-0.07610386,0.93440594,738.79265,37.929328)"
 d="m 375.48047,478.39844 c 0.20689,1.49622 2.55097,7.10852 6.09961,15.07226 -3.05913,-7.55018 -6.09961,-15.07226 -6.09961,-15.07226 z m 6.09961,15.07226 c 12.7388,31.44042 45.18895,110.95221 52.86133,123.78125 4.97527,8.3192 15.71164,43.6933 25.14843,77.45117 a 228.57143,228.57143 0 0 0 7.85547,-3.51562 c -0.22534,-1.59241 -0.55772,-4.00672 -0.75195,-5.36328 C 463.77184,665.41911 401.3702,537.88303 381.58008,493.4707 Z"
 style="fill:url(#linearGradient4855);fill-opacity:1;fill-rule:evenodd;stroke:none;stroke-width:1.0666666px;stroke-linecap:butt;stroke-linejoin:miter;stroke-opacity:1" />
<path
 inkscape:connector-curvature="0"
 id="path4845"
 transform="matrix(-0.93440594,-0.07610386,-0.07610386,0.93440594,738.79265,37.929328)"
 d="m 383.17383,476.86328 c 0,0 7.7262,64.41212 10.09765,88.38867 1.9521,19.73664 27.78588,102.19663 38.75977,138.40039 a 228.57143,228.57143 0 0 0 6.48828,-1.72851 C 430.3694,660.76559 418.22328,602.90281 411.83984,589.4668 401.68841,568.09978 383.17383,476.86328 383.17383,476.86328 Z"
 style="fill:url(#linearGradient4857);fill-opacity:1;fill-rule:evenodd;stroke:none;stroke-width:1.0666666px;stroke-linecap:butt;stroke-linejoin:miter;stroke-opacity:1" />
<path
 inkscape:connector-curvature="0"
 id="path4847"
 transform="matrix(-0.93440594,-0.07610386,-0.07610386,0.93440594,738.79265,37.929328)"
 d="m 381.01953,483 -3.21484,2.04492 c 0.0831,2.82849 1.34784,12.84966 3.13867,25.74414 C 380.54407,497.89863 381.01953,483 381.01953,483 Z m -0.0762,27.78906 c 0.20009,6.45948 0.615,12.42412 1.42773,15.73828 2.43461,9.92787 3.69428,60.84028 7.75196,77.38672 3.15379,12.86059 14.25912,71.95648 19.53711,104.3418 a 228.57143,228.57143 0 0 0 3.84961,-0.4668 c -6.13801,-37.68018 -13.28024,-82.50237 -16.39454,-96.82031 -3.90904,-17.9718 -11.78773,-68.61254 -16.17187,-100.17969 z"
 style="fill:url(#linearGradient4859);fill-opacity:1;fill-rule:evenodd;stroke:none;stroke-width:1.0666666px;stroke-linecap:butt;stroke-linejoin:miter;stroke-opacity:1" />
<path
 inkscape:connector-curvature="0"
 id="path4849"
 transform="matrix(-0.93440594,-0.07610386,-0.07610386,0.93440594,738.79265,37.929328)"
 d="m 384.85938,469.43359 c 0,0 31.99325,71.97561 36.48828,83.15235 3.00301,7.46692 40.49442,78.86816 66.66796,128.20117 a 228.57143,228.57143 0 0 0 8.9004,-5.10547 C 464.68103,617.38025 390.0171,481.21421 384.85938,469.43359 Z"
 style="fill:url(#linearGradient4861);fill-opacity:1;fill-rule:evenodd;stroke:none;stroke-width:1.0666666px;stroke-linecap:butt;stroke-linejoin:miter;stroke-opacity:1" />
</g>
<path
 style="fill:url(#linearGradient5081);fill-opacity:1;fill-rule:evenodd;stroke:none;stroke-width:1px;stroke-linecap:butt;stroke-linejoin:miter;stroke-opacity:1"
 d="m 416.42856,478.0765 74.28572,114.28572 c -30.1505,57.58296 -118.92185,15.26689 -152.85714,-21.42858 l 64.28571,-90.71429 z"
 id="path5079"
 inkscape:connector-curvature="0"
 sodipodi:nodetypes="ccccc" />
<path
 sodipodi:nodetypes="ccccc"
 inkscape:connector-curvature="0"
 id="rect4965"
 d="m 343.46683,589.50507 h 16.78572 v 64.28571 c -6.10497,6.62652 -11.63211,5.74121 -16.78572,0 z"
 style="opacity:1;fill:#000000;fill-opacity:1;fill-rule:nonzero;stroke:none;stroke-width:2.5999999;stroke-linecap:round;stroke-linejoin:round;stroke-miterlimit:4;stroke-dasharray:none;stroke-dashoffset:0;stroke-opacity:1" />
<path
 sodipodi:nodetypes="ccccc"
 inkscape:connector-curvature="0"
 id="path5061"
 d="m 285.71429,478.0765 -74.28572,114.28572 c 30.1505,57.58296 118.92185,15.26689 152.85714,-21.42858 L 300,480.21935 Z"
 style="fill:url(#linearGradient5077);fill-opacity:1;fill-rule:evenodd;stroke:none;stroke-width:1px;stroke-linecap:butt;stroke-linejoin:miter;stroke-opacity:1" />
<circle
 r="52.022858"
 cy="573.04486"
 cx="352.03815"
 id="path4950"
 style="opacity:1;fill:#000000;fill-opacity:1;fill-rule:nonzero;stroke:none;stroke-width:2.5999999;stroke-linecap:round;stroke-linejoin:round;stroke-miterlimit:4;stroke-dasharray:none;stroke-dashoffset:0;stroke-opacity:1" />
<path
 sodipodi:nodetypes="ccccccc"
 inkscape:connector-curvature="0"
 id="circle4984"
 d="m 300.26367,568.09375 c -0.16132,1.64551 -0.24409,3.29778 -0.24805,4.95117 -3.2e-4,28.73189 23.29155,54.8809 52.02344,54.88058 28.73112,-7.5e-4 52.02181,-26.14946 52.02149,-54.88058 -0.0131,-1.55436 -0.0959,-3.10735 -0.24805,-4.6543 -2.54739,26.69006 -24.96209,47.07283 -51.77344,47.08008 -26.91585,-0.0205 -49.37167,-20.56864 -51.77539,-47.37695 z"
 style="opacity:1;fill:url(#linearGradient5033);fill-opacity:1;fill-rule:nonzero;stroke:none;stroke-width:2.5999999;stroke-linecap:round;stroke-linejoin:round;stroke-miterlimit:4;stroke-dasharray:none;stroke-dashoffset:0;stroke-opacity:1" />
<path
 style="opacity:1;fill:#000000;fill-opacity:1;fill-rule:nonzero;stroke:none;stroke-width:2.5999999;stroke-linecap:round;stroke-linejoin:round;stroke-miterlimit:4;stroke-dasharray:none;stroke-dashoffset:0;stroke-opacity:1"
 d="m 350.29629,483.25437 h 3.41118 v 13.06411 c -1.24064,1.34663 -2.36387,1.16672 -3.41118,0 z"
 id="path5045"
 inkscape:connector-curvature="0"
 sodipodi:nodetypes="ccccc" />
<circle
 style="opacity:1;fill:#030100;fill-opacity:1;fill-rule:nonzero;stroke:none;stroke-width:2.5999999;stroke-linecap:round;stroke-linejoin:round;stroke-miterlimit:4;stroke-dasharray:none;stroke-dashoffset:0;stroke-opacity:1"
 id="circle5047"
 cx="352.03815"
 cy="479.90933"
 r="10.572054" />
<path
 style="opacity:0.33599997;fill:url(#linearGradient5051);fill-opacity:1;fill-rule:nonzero;stroke:none;stroke-width:2.5999999;stroke-linecap:round;stroke-linejoin:round;stroke-miterlimit:4;stroke-dasharray:none;stroke-dashoffset:0;stroke-opacity:1"
 d="m 341.51657,478.90318 c -0.0328,0.32398 -0.0496,0.64928 -0.0504,0.97483 -7e-5,5.65697 4.73329,10.80539 10.57217,10.80533 5.83872,-1.6e-4 10.57184,-5.14852 10.57177,-10.80533 -0.002,-0.30604 -0.0194,-0.61181 -0.0504,-0.91638 -0.51768,5.25495 -5.07278,9.26807 -10.52136,9.26951 -5.46983,-0.005 -10.03329,-4.04973 -10.52177,-9.32796 z"
 id="path5049"
 inkscape:connector-curvature="0"
 sodipodi:nodetypes="ccccccc" />
<path
 style="fill:#3f2616;fill-opacity:1;fill-rule:evenodd;stroke:none;stroke-width:1px;stroke-linecap:butt;stroke-linejoin:miter;stroke-opacity:1"
 d="m 486.97842,596.64792 c -1.00426,0.33651 -0.54408,-53.65071 0,-83.74382 0.2155,-11.91959 -7.1312,-25.03698 -17.26017,-31.32402 -20.65929,-12.82322 -72.8763,-3.19633 -72.8763,-3.19633 0,0 -1.27853,3.8356 5.11413,3.8356 6.39265,0 16.6209,0.63926 19.17797,-1.27854 2.55706,-1.91779 3.83559,-2.55706 3.83559,-2.55706 0,0 29.73692,-1.1427 41.55228,6.39266 7.77333,4.95751 14.97574,13.80124 15.34238,23.01357 1.24504,31.28368 -1.31353,89.38335 0,88.85794 z"
 id="path5057"
 inkscape:connector-curvature="0"
 sodipodi:nodetypes="csacsscascc" />
<path
 sodipodi:nodetypes="csacsscascc"
 inkscape:connector-curvature="0"
 id="path5059"
 d="m 216.02791,596.64792 c 1.00426,0.33651 0.54408,-53.65071 0,-83.74382 -0.2155,-11.91959 7.1312,-25.03698 17.26017,-31.32402 20.65929,-12.82322 72.8763,-3.19633 72.8763,-3.19633 0,0 1.27853,3.8356 -5.11413,3.8356 -6.39265,0 -16.6209,0.63926 -19.17797,-1.27854 -2.55706,-1.91779 -3.83559,-2.55706 -3.83559,-2.55706 0,0 -29.73692,-1.1427 -41.55228,6.39266 -7.77333,4.95751 -14.97574,13.80124 -15.34238,23.01357 -1.24504,31.28368 1.31353,89.38335 0,88.85794 z"
 style="fill:#3f2616;fill-opacity:1;fill-rule:evenodd;stroke:none;stroke-width:1px;stroke-linecap:butt;stroke-linejoin:miter;stroke-opacity:1" />
</g>
</g>
</g>
</svg>
