<?xml version="1.0" encoding="UTF-8" standalone="no"?>
<!-- Created with Inkscape (http://www.inkscape.org/) -->

<svg
 xmlns:dc="http://purl.org/dc/elements/1.1/"
 xmlns:cc="http://creativecommons.org/ns#"
 xmlns:rdf="http://www.w3.org/1999/02/22-rdf-syntax-ns#"
 xmlns:svg="http://www.w3.org/2000/svg"
 xmlns="http://www.w3.org/2000/svg"
 xmlns:sodipodi="http://sodipodi.sourceforge.net/DTD/sodipodi-0.dtd"
 xmlns:inkscape="http://www.inkscape.org/namespaces/inkscape"
 width="43.637665mm"
 height="43.637665mm"
 viewBox="0 0 43.637665 43.637664"
 version="1.1"
 id="svg15969"
 inkscape:version="0.92.2 (unknown)"
 sodipodi:docname="sole.svg">
<defs
 id="defs15963" />
<sodipodi:namedview
 id="base"
 pagecolor="#ffffff"
 bordercolor="#666666"
 borderopacity="1.0"
 inkscape:pageopacity="0.0"
 inkscape:pageshadow="2"
 inkscape:zoom="3.959798"
 inkscape:cx="-1.1162107"
 inkscape:cy="13.760289"
 inkscape:document-units="mm"
 inkscape:current-layer="g4162"
 showgrid="false"
 fit-margin-top="0"
 fit-margin-left="0"
 fit-margin-right="0"
 fit-margin-bottom="0"
 inkscape:pagecheckerboard="true"
 inkscape:window-width="1366"
 inkscape:window-height="716"
 inkscape:window-x="0"
 inkscape:window-y="25"
 inkscape:window-maximized="1" />
<metadata
 id="metadata15966">
<rdf:RDF>
<cc:Work
 rdf:about="">
<dc:format>image/svg+xml</dc:format>
<dc:type
 rdf:resource="http://purl.org/dc/dcmitype/StillImage" />
<dc:title></dc:title>
</cc:Work>
</rdf:RDF>
</metadata>
<g
 inkscape:label="Layer 1"
 inkscape:groupmode="layer"
 id="layer1"
 transform="translate(63.396215,-14.850231)">
<g
 id="g4162"
 transform="matrix(0.16002537,0,0,0.16002537,-154.35869,-65.599601)">
<circle
 style="opacity:1;fill:#000000;fill-opacity:1;fill-rule:nonzero;stroke:none;stroke-width:8;stroke-linecap:round;stroke-linejoin:miter;stroke-miterlimit:4;stroke-dasharray:none;stroke-dashoffset:0;stroke-opacity:1"
 id="circle5071"
 cx="704.77142"
 cy="639.07782"
 r="136.34608" />
<circle
 style="opacity:1;fill:#d4aa00;fill-opacity:1;fill-rule:nonzero;stroke:none;stroke-width:8;stroke-linecap:round;stroke-linejoin:miter;stroke-miterlimit:4;stroke-dasharray:none;stroke-dashoffset:0;stroke-opacity:1"
 id="circle5073"
 cx="705.19489"
 cy="638.86609"
 r="122.34659" />
<circle
 r="106.67822"
 cy="638.86609"
 cx="705.19489"
 id="circle5075"
 style="opacity:1;fill:#ffcc00;fill-opacity:1;fill-rule:nonzero;stroke:none;stroke-width:8;stroke-linecap:round;stroke-linejoin:miter;stroke-miterlimit:4;stroke-dasharray:none;stroke-dashoffset:0;stroke-opacity:1" />
<circle
 style="opacity:1;fill:#ffd42a;fill-opacity:1;fill-rule:nonzero;stroke:none;stroke-width:8;stroke-linecap:round;stroke-linejoin:miter;stroke-miterlimit:4;stroke-dasharray:none;stroke-dashoffset:0;stroke-opacity:1"
 id="circle5077"
 cx="705.19489"
 cy="638.86609"
 r="89.96312" />
<circle
 r="71.582672"
 cy="638.86609"
 cx="705.19489"
 id="circle5079"
 style="opacity:1;fill:#ffdd55;fill-opacity:1;fill-rule:nonzero;stroke:none;stroke-width:8;stroke-linecap:round;stroke-linejoin:miter;stroke-miterlimit:4;stroke-dasharray:none;stroke-dashoffset:0;stroke-opacity:1" />
<circle
 style="opacity:1;fill:#ffe680;fill-opacity:1;fill-rule:nonzero;stroke:none;stroke-width:8;stroke-linecap:round;stroke-linejoin:miter;stroke-miterlimit:4;stroke-dasharray:none;stroke-dashoffset:0;stroke-opacity:1"
 id="circle5081"
 cx="705.19489"
 cy="638.86609"
 r="54.341801" />
<circle
 r="24.5147"
 cy="638.86609"
 cx="705.19489"
 id="circle5083"
 style="opacity:1;fill:#fff6d5;fill-opacity:1;fill-rule:nonzero;stroke:none;stroke-width:8;stroke-linecap:round;stroke-linejoin:miter;stroke-miterlimit:4;stroke-dasharray:none;stroke-dashoffset:0;stroke-opacity:1" />
<path
 sodipodi:nodetypes="cssc"
 inkscape:connector-curvature="0"
 id="path5085"
 d="m 827.73622,638.86883 c 18.39026,40.37766 -15.59317,91.6706 -56.87365,115.49304 -41.28047,23.82246 -92.14013,23.82246 -133.42061,0 -41.28049,-23.82245 -76.97465,-81.52769 -57.72902,-115.49305"
 style="opacity:1;fill:#000000;fill-opacity:1;fill-rule:nonzero;stroke:none;stroke-width:8;stroke-linecap:round;stroke-linejoin:miter;stroke-miterlimit:4;stroke-dasharray:none;stroke-dashoffset:0;stroke-opacity:1" />
<path
 inkscape:connector-curvature="0"
 style="opacity:1;fill:#004455;fill-opacity:1;fill-rule:nonzero;stroke:none;stroke-width:8;stroke-linecap:round;stroke-linejoin:miter;stroke-miterlimit:4;stroke-dasharray:none;stroke-dashoffset:0;stroke-opacity:1"
 d="m 598.21518,638.86648 a 122.34659,122.34659 0 0 0 -14.92578,50.47852 132.10695,132.10695 0 0 0 55.85156,63.92969 132.10695,132.10695 0 0 0 132.10742,0 132.10695,132.10695 0 0 0 55.97071,-63.90821 122.34659,122.34659 0 0 0 -15.16406,-50.5 z"
 id="path5087" />
<path
 inkscape:connector-curvature="0"
 style="opacity:1;fill:#0088aa;fill-opacity:1;fill-rule:nonzero;stroke:none;stroke-width:8;stroke-linecap:round;stroke-linejoin:miter;stroke-miterlimit:4;stroke-dasharray:none;stroke-dashoffset:0;stroke-opacity:1"
 d="m 614.73276,638.86648 a 106.67822,106.67822 0 0 0 -16.2168,56.29297 106.67822,106.67822 0 0 0 3.25391,25.70899 132.10695,132.10695 0 0 0 37.37109,32.40625 132.10695,132.10695 0 0 0 132.10742,0 132.10695,132.10695 0 0 0 37.34376,-32.40235 106.67822,106.67822 0 0 0 3.28124,-25.71289 106.67822,106.67822 0 0 0 -16.14062,-56.29297 z"
 id="path5089" />
<path
 inkscape:connector-curvature="0"
 style="opacity:1;fill:#00aad4;fill-opacity:1;fill-rule:nonzero;stroke:none;stroke-width:8;stroke-linecap:round;stroke-linejoin:miter;stroke-miterlimit:4;stroke-dasharray:none;stroke-dashoffset:0;stroke-opacity:1"
 d="m 633.52964,638.86648 a 89.96312,89.96312 0 0 0 -18.29688,54.19727 89.96312,89.96312 0 0 0 22.4082,59.24219 132.10695,132.10695 0 0 0 1.5,0.96875 132.10695,132.10695 0 0 0 132.10742,0 132.10695,132.10695 0 0 0 1.51368,-0.92188 89.96312,89.96312 0 0 0 22.39648,-59.28906 89.96312,89.96312 0 0 0 -18.25976,-54.19727 z"
 id="path5091" />
<path
 inkscape:connector-curvature="0"
 style="opacity:1;fill:#00ccff;fill-opacity:1;fill-rule:nonzero;stroke:none;stroke-width:8;stroke-linecap:round;stroke-linejoin:miter;stroke-miterlimit:4;stroke-dasharray:none;stroke-dashoffset:0;stroke-opacity:1"
 d="m 650.4437,638.86648 a 71.582672,71.582672 0 0 0 -16.83203,46.11328 71.582672,71.582672 0 0 0 71.58398,71.58204 71.582672,71.582672 0 0 0 71.58203,-71.58204 71.582672,71.582672 0 0 0 -16.92969,-46.11328 z"
 id="path5093" />
<path
 inkscape:connector-curvature="0"
 style="opacity:1;fill:#55ddff;fill-opacity:1;fill-rule:nonzero;stroke:none;stroke-width:8;stroke-linecap:round;stroke-linejoin:miter;stroke-miterlimit:4;stroke-dasharray:none;stroke-dashoffset:0;stroke-opacity:1"
 d="m 680.12143,638.86648 a 54.341801,54.341801 0 0 0 -29.86719,48.50782 54.341801,54.341801 0 0 0 54.3418,54.34179 54.341801,54.341801 0 0 0 54.3418,-54.34179 54.341801,54.341801 0 0 0 -29.98438,-48.50782 z"
 id="path5095" />
<path
 inkscape:connector-curvature="0"
 style="opacity:1;fill:#aa8800;fill-opacity:1;fill-rule:nonzero;stroke:none;stroke-width:8.01346397;stroke-linecap:round;stroke-linejoin:miter;stroke-miterlimit:4;stroke-dasharray:none;stroke-dashoffset:0;stroke-opacity:1"
 d="m 580.77768,683.18875 a 132.10695,132.552 0 0 0 58.36328,70.32205 132.10695,132.552 0 0 0 3.90625,2.13999 162.47357,202.03343 0 0 0 4.5586,2.2223 132.10695,132.552 0 0 0 7.73828,3.52748 162.47357,202.03343 0 0 0 28.67383,8.0681 132.10695,132.552 0 0 0 4.21093,0.535 162.47357,202.03343 0 0 0 10.65821,0.9779 132.10695,132.552 0 0 0 5.27734,0.14109 162.47357,202.03343 0 0 0 10.13867,-0.33315 132.10695,132.552 0 0 0 4.97266,-0.36843 162.47357,202.03343 0 0 0 12.52539,-1.9793 132.10695,132.552 0 0 0 2.26758,-0.39782 162.47357,202.03343 0 0 0 14.13281,-4.04875 132.10695,132.552 0 0 0 6.72461,-2.64364 162.47357,202.03343 0 0 0 5.92187,-2.49275 132.10695,132.552 0 0 0 10.40039,-5.34802 132.10695,132.552 0 0 0 58.14649,-70.10844 297.77688,370.28105 0 0 1 -124.1543,34.47316 297.77688,370.28105 0 0 1 -124.46289,-34.68677 z"
 id="path5097" />
<path
 id="path5099"
 d="m 580.77768,683.18875 a 132.10695,116.14888 0 0 0 58.36328,61.6198 132.10695,116.14888 0 0 0 3.90625,1.87517 162.47357,177.03209 0 0 0 4.5586,1.94729 132.10695,116.14888 0 0 0 7.73828,3.09096 162.47357,177.03209 0 0 0 28.67383,7.06968 132.10695,116.14888 0 0 0 4.21093,0.4688 162.47357,177.03209 0 0 0 10.65821,0.85688 132.10695,116.14888 0 0 0 5.27734,0.12364 162.47357,177.03209 0 0 0 10.13867,-0.29193 132.10695,116.14888 0 0 0 4.97266,-0.32283 162.47357,177.03209 0 0 0 12.52539,-1.73437 132.10695,116.14888 0 0 0 2.26758,-0.34859 162.47357,177.03209 0 0 0 14.13281,-3.54772 132.10695,116.14888 0 0 0 6.72461,-2.31649 162.47357,177.03209 0 0 0 5.92187,-2.18428 132.10695,116.14888 0 0 0 10.40039,-4.68621 132.10695,116.14888 0 0 0 58.14649,-61.43263 297.77688,324.45931 0 0 1 -124.1543,30.20716 297.77688,324.45931 0 0 1 -124.46289,-30.39433 z"
 style="opacity:1;fill:#ffcc00;fill-opacity:1;fill-rule:nonzero;stroke:none;stroke-width:0.30000019;stroke-linecap:round;stroke-linejoin:miter;stroke-miterlimit:4;stroke-dasharray:none;stroke-dashoffset:0;stroke-opacity:1"
 inkscape:connector-curvature="0" />
<path
 inkscape:connector-curvature="0"
 id="path5126"
 d="m 688.83506,713.3001 a 3.8526947,3.8526947 0 0 0 -3.42879,2.09821 h 6.85759 a 3.8526947,3.8526947 0 0 0 -3.4288,-2.09821 z"
 style="opacity:1;fill:#000000;fill-opacity:1;fill-rule:nonzero;stroke:none;stroke-width:8;stroke-linecap:round;stroke-linejoin:miter;stroke-miterlimit:4;stroke-dasharray:none;stroke-dashoffset:0;stroke-opacity:1" />
<g
 transform="matrix(1.9180179,0,0,1.9180179,629.00758,-311.41014)"
 id="g5121">
<circle
 style="opacity:1;fill:#000000;fill-opacity:1;fill-rule:nonzero;stroke:none;stroke-width:8;stroke-linecap:round;stroke-linejoin:miter;stroke-miterlimit:4;stroke-dasharray:none;stroke-dashoffset:0;stroke-opacity:1"
 id="path5106"
 cx="39.765083"
 cy="514.00623"
 r="4.3041863" />
<path
 style="opacity:1;fill:#000000;fill-opacity:1;fill-rule:nonzero;stroke:none;stroke-width:8;stroke-linecap:round;stroke-linejoin:miter;stroke-miterlimit:4;stroke-dasharray:none;stroke-dashoffset:0;stroke-opacity:1"
 d="m 39.613248,519.25691 c -3.264531,4.1e-4 -5.436788,1.89745 -5.610345,2.31596 l -2.968455,13.83244 c -0.0037,0.0222 1.937465,0.35156 1.937465,0.35156 0.0222,0.004 0.04338,-0.0112 0.04711,-0.0335 l 2.867456,-10.33051 0.04718,10.2032 c 0,0.0225 7.607668,-4e-5 7.607668,-4e-5 0.02251,0 -0.270969,-10.17601 -0.270969,-10.17601 l 3.177231,10.30027 c 0.0041,0.0222 0.02497,0.0375 0.04712,0.0335 l 1.931385,-0.35742 c 0.02214,-0.004 -3.146598,-13.71078 -3.146598,-13.71078 -0.168296,-0.41912 -2.397411,-2.42823 -5.666243,-2.42879 z"
 id="rect5108"
 inkscape:connector-curvature="0"
 sodipodi:nodetypes="ccccccccccccccc" />
<rect
 ry="0.016008422"
 y="517.36548"
 x="38.319817"
 height="5.8804016"
 width="2.7045979"
 id="rect5110"
 style="opacity:1;fill:#000000;fill-opacity:1;fill-rule:nonzero;stroke:none;stroke-width:8;stroke-linecap:round;stroke-linejoin:miter;stroke-miterlimit:4;stroke-dasharray:none;stroke-dashoffset:0;stroke-opacity:1" />
</g>
<path
 inkscape:connector-curvature="0"
 id="circle5128"
 d="m 721.55515,713.3001 a 3.8526947,3.8526947 0 0 0 -3.42879,2.09821 h 6.85758 a 3.8526947,3.8526947 0 0 0 -3.42879,-2.09821 z"
 style="opacity:1;fill:#000000;fill-opacity:1;fill-rule:nonzero;stroke:none;stroke-width:8;stroke-linecap:round;stroke-linejoin:miter;stroke-miterlimit:4;stroke-dasharray:none;stroke-dashoffset:0;stroke-opacity:1" />
<path
 inkscape:connector-curvature="0"
 id="path5119"
 d="m 724.9877,715.35672 -7.13086,0.006 -3.11914,48.14648 h 5.37305 l 4.87695,-48.15234 z m -12.48047,0.006 -7.31445,0.006 -7.31445,0.01 c 0,0 1.13021,30.00978 1.81445,48.13086 h 11.01367 l 1.80078,-48.14648 z m -7.31445,0.004 -19.79492,0.01 c 0,0 3.06947,29.9252 4.9375,48.13281 h 5.34765 c -1.1935,-18.20767 -3.15429,-48.13281 -3.15429,-48.13281 z"
 style="fill:#aa8800;fill-opacity:1;fill-rule:evenodd;stroke:none;stroke-width:1px;stroke-linecap:butt;stroke-linejoin:miter;stroke-opacity:1" />
<path
 sodipodi:nodetypes="ccccc"
 inkscape:connector-curvature="0"
 id="circle5130"
 d="m 697.87204,715.33526 c 1.89898,1.84975 4.56909,2.95013 7.3673,2.95294 2.79495,-0.006 5.4454,-1.10535 7.34216,-2.95294 -4.90841,-0.77048 -9.80105,-0.56791 -14.70946,9.1e-4 z"
 style="opacity:1;fill:#000000;fill-opacity:1;fill-rule:nonzero;stroke:none;stroke-width:8;stroke-linecap:round;stroke-linejoin:miter;stroke-miterlimit:4;stroke-dasharray:none;stroke-dashoffset:0;stroke-opacity:1" />
</g>
</g>
</svg>
