<?xml version="1.0" encoding="UTF-8" standalone="no"?>
<!-- Created with Inkscape (http://www.inkscape.org/) -->

<svg
 xmlns:dc="http://purl.org/dc/elements/1.1/"
 xmlns:cc="http://creativecommons.org/ns#"
 xmlns:rdf="http://www.w3.org/1999/02/22-rdf-syntax-ns#"
 xmlns:svg="http://www.w3.org/2000/svg"
 xmlns="http://www.w3.org/2000/svg"
 xmlns:xlink="http://www.w3.org/1999/xlink"
 xmlns:sodipodi="http://sodipodi.sourceforge.net/DTD/sodipodi-0.dtd"
 xmlns:inkscape="http://www.inkscape.org/namespaces/inkscape"
 width="452"
 height="369.58301"
 viewBox="0 0 119.59167 97.785499"
 version="1.1"
 id="svg16016"
 sodipodi:docname="sunHome.svg"
 inkscape:version="0.92.2 (unknown)">
<defs
 id="defs16010">
<linearGradient
 inkscape:collect="always"
 id="linearGradient13763">
<stop
 style="stop-color:#ffff00;stop-opacity:1;"
 offset="0"
 id="stop13759" />
<stop
 style="stop-color:#ff9600;stop-opacity:1"
 offset="1"
 id="stop13761" />
</linearGradient>
<clipPath
 id="clipPath4256-4"
 clipPathUnits="userSpaceOnUse">
<path
 inkscape:connector-curvature="0"
 style="fill:#e6e6e6;fill-rule:evenodd;stroke:none;stroke-width:1px;stroke-linecap:butt;stroke-linejoin:miter;stroke-opacity:1"
 d="m 605.69336,103.63281 c -6.57859,7.55304 -14.75896,12.17058 -13.63672,33.8418 l 3.0293,108.08594 30.30468,-6.06055 -6.06054,-105.5625 11.11133,16.66797 15.6582,-16.66797 -19.69922,-24.74805 z m -34.69727,1.01172 -20.70898,5.55469 -19.69727,24.75 15.65625,16.66601 11.11329,-16.66601 -6.0625,105.56055 30.30468,6.06054 4.04102,-105.05664 c 4.54555,-27.3749 -6.3471,-30.04614 -14.64649,-36.86914 z"
 id="path4258-4" />
</clipPath>
<clipPath
 id="clipPath4269-2"
 clipPathUnits="userSpaceOnUse">
<path
 inkscape:connector-curvature="0"
 id="path4271-4"
 d="m 546.76558,111.2689 v 4.64453 l 11.07227,19.64258 6.42773,-11.07226 z m 37.5625,0.50586 -17.5,13.21484 6.42774,11.07032 11.07226,-19.64258 z"
 style="fill:#aa0000;fill-rule:evenodd;stroke:none;stroke-width:1px;stroke-linecap:butt;stroke-linejoin:miter;stroke-opacity:1" />
</clipPath>
<linearGradient
 inkscape:collect="always"
 xlink:href="#linearGradient13763"
 id="linearGradient13769"
 x1="180.78787"
 y1="258.6709"
 x2="181.26779"
 y2="315.64633"
 gradientUnits="userSpaceOnUse"
 gradientTransform="matrix(3.7232192,0,0,3.7232192,-446.59302,-809.4339)" />
<linearGradient
 inkscape:collect="always"
 xlink:href="#linearGradient13763"
 id="linearGradient13772"
 gradientUnits="userSpaceOnUse"
 gradientTransform="matrix(0.98510177,0,0,0.98510177,-118.16107,-14.948185)"
 x1="181.60181"
 y1="258.12827"
 x2="181.26779"
 y2="315.64633" />
</defs>
<sodipodi:namedview
 id="base"
 pagecolor="#ffffff"
 bordercolor="#666666"
 borderopacity="1.0"
 inkscape:pageopacity="0.0"
 inkscape:pageshadow="2"
 inkscape:zoom="0.98994949"
 inkscape:cx="226.95561"
 inkscape:cy="204.77129"
 inkscape:document-units="mm"
 inkscape:current-layer="layer2"
 showgrid="false"
 units="px"
 inkscape:pagecheckerboard="true"
 borderlayer="true"
 inkscape:window-width="1366"
 inkscape:window-height="716"
 inkscape:window-x="0"
 inkscape:window-y="25"
 inkscape:window-maximized="1"
 inkscape:showpageshadow="false" />
<metadata
 id="metadata16013">
<rdf:RDF>
<cc:Work
 rdf:about="">
<dc:format>image/svg+xml</dc:format>
<dc:type
 rdf:resource="http://purl.org/dc/dcmitype/StillImage" />
<dc:title />
</cc:Work>
</rdf:RDF>
</metadata>
<g
 inkscape:label="Layer 1"
 inkscape:groupmode="layer"
 id="layer1"
 transform="translate(0,-199.21454)"
 style="display:inline">
<path
 inkscape:connector-curvature="0"
 id="circle5542"
 d="m 44.716138,200.26719 c -0.284948,-0.011 -0.576543,0.0203 -0.867129,0.0982 -1.549805,0.41527 -2.463208,1.99727 -2.047939,3.54707 l 2.998267,11.1895 c 0.415268,1.54981 1.997268,2.46321 3.54707,2.04794 1.549805,-0.41527 2.463207,-1.99727 2.047938,-3.54707 l -2.998266,-11.1895 c -0.337407,-1.25921 -1.445165,-2.09848 -2.679941,-2.14612 z m 29.748055,0 c -1.234776,0.0476 -2.342534,0.88691 -2.679938,2.14612 l -2.998266,11.1895 c -0.415269,1.5498 0.498131,3.1318 2.047935,3.54707 1.549805,0.41527 3.131802,-0.49762 3.547071,-2.04742 l 2.998266,-11.19002 c 0.415269,-1.5498 -0.498134,-3.1318 -2.047936,-3.54707 -0.290589,-0.0779 -0.582184,-0.10917 -0.867132,-0.0982 z m -55.832251,14.98823 c -0.740315,0 -1.48067,0.28384 -2.047937,0.85111 -1.134536,1.13454 -1.134536,2.96134 0,4.09588 l 8.191748,8.19123 c 1.134535,1.13453 2.961339,1.13453 4.095873,0 1.134536,-1.13454 1.134536,-2.96134 0,-4.09588 l -8.191748,-8.19123 c -0.567267,-0.56727 -1.307621,-0.85111 -2.047936,-0.85111 z m 81.915928,0 c -0.74031,0 -1.480665,0.28384 -2.047934,0.85111 l -8.191746,8.19123 c -1.134536,1.13454 -1.134536,2.96134 0,4.09588 1.134533,1.13453 2.961338,1.13453 4.095871,0 l 8.191749,-8.19123 c 1.13454,-1.13454 1.13454,-2.96134 0,-4.09588 -0.56727,-0.56727 -1.30762,-0.85111 -2.04794,-0.85111 z m -40.912745,6.46989 a 37.386856,37.386856 0 0 0 -37.386867,37.38687 37.386856,37.386856 0 0 0 37.386867,37.38686 37.386856,37.386856 0 0 0 37.386867,-37.38686 37.386856,37.386856 0 0 0 -37.386867,-37.38687 z m -56.1123392,19.5001 c -1.2347763,0.0476 -2.3425339,0.88639 -2.67993979,2.14561 -0.41526877,1.5498 0.49813299,3.1318 2.04793699,3.54707 l 11.190015,2.99827 c 1.549804,0.41527 3.131802,-0.49814 3.54707,-2.04794 0.415269,-1.54981 -0.498133,-3.1318 -2.047937,-3.54707 L 4.3899164,241.32308 c -0.2905881,-0.0779 -0.5821823,-0.10866 -0.8671306,-0.0977 z m 112.1342442,0 c -0.28495,-0.011 -0.57654,0.0198 -0.86713,0.0977 l -11.19002,2.99827 c -1.5498,0.41527 -2.4632,1.99726 -2.04793,3.54707 0.41527,1.5498 1.99726,2.46321 3.54707,2.04794 l 11.19001,-2.99827 c 1.54981,-0.41527 2.46321,-1.99727 2.04794,-3.54707 -0.33741,-1.25922 -1.44516,-2.09797 -2.67994,-2.14561 z"
 style="opacity:1;fill:url(#linearGradient13772);fill-opacity:1;stroke:none;stroke-width:7.14297342;stroke-linecap:square;stroke-miterlimit:4;stroke-dasharray:none;stroke-dashoffset:18.51968575;stroke-opacity:1" />
</g>
<g
 inkscape:groupmode="layer"
 id="layer2"
 inkscape:label="eyeleft" />
<g
 inkscape:groupmode="layer"
 id="layer3"
 inkscape:label="eyeright" />
</svg>
